<svg width="16" height="15" viewBox="0 0 16 15" fill="none" xmlns="http://www.w3.org/2000/svg">
<path fill-rule="evenodd" clip-rule="evenodd" d="M5.13953 0.101757C4.74914 0.240976 4.54787 0.426811 4.37152 0.810859C4.17879 1.23055 4.18772 1.60653 4.40043 2.02756C4.61149 2.44537 4.97266 2.70376 5.44469 2.7745C5.94054 2.84885 6.55249 2.54417 6.80312 2.09815C7.20182 1.38881 6.9486 0.541352 6.2312 0.183862C5.78964 -0.0362092 5.57208 -0.052505 5.13953 0.101757ZM5.05907 6.62799C5.37574 8.21158 5.67244 9.69231 5.71851 9.91849L5.80218 10.3298H8.21176H10.6214L11.3116 12.1905C11.6912 13.2139 12.0316 14.1095 12.0681 14.1807C12.1271 14.296 12.2923 14.258 13.5656 13.8368C14.3526 13.5764 15.0064 13.3555 15.0185 13.3459C15.0501 13.3207 14.4785 11.7125 14.4118 11.6389C14.3808 11.6048 14.1124 11.6651 13.8152 11.773C13.5181 11.8809 13.2501 11.944 13.2197 11.9133C13.1892 11.8826 12.9902 11.3816 12.7773 10.7999C12.5644 10.2182 12.2778 9.45131 12.1404 9.09586L11.8906 8.44952H10.0687H8.24686L8.15042 7.92069C8.09746 7.62979 8.03462 7.31249 8.01089 7.21558L7.96772 7.0393H9.38647H10.8051V6.09916V5.15902H9.20534H7.60553L7.48174 4.61475C7.41366 4.3154 7.35796 3.9981 7.35796 3.90965C7.35796 3.75327 7.318 3.7488 5.92064 3.7488H4.48331L5.05907 6.62799ZM3.1639 5.92453C2.35123 6.20062 1.84661 6.53037 1.21906 7.19568C-0.0939248 8.58748 -0.368525 10.5977 0.503536 12.434C0.88257 13.2322 1.75816 14.108 2.5789 14.5098C4.43137 15.4169 6.59777 15.0434 8.03909 13.5686C8.44735 13.1508 8.94805 12.3508 9.04332 11.964C9.09197 11.7663 9.07011 11.749 8.55907 11.5803C8.26472 11.4832 7.98229 11.3884 7.93144 11.3698C7.87974 11.3507 7.74161 11.5358 7.61806 11.7897C7.17267 12.705 6.23989 13.3874 5.1878 13.5676C3.78518 13.8079 2.32851 13.0221 1.6943 11.6831C1.46076 11.1901 1.44289 11.0937 1.44289 10.3257C1.44289 9.52778 1.45316 9.47834 1.73794 8.90211C2.16453 8.03891 3.00369 7.33521 3.81589 7.15956C4.00549 7.11859 4.06401 7.06939 4.03722 6.97365C4.01716 6.90204 3.95966 6.5878 3.90952 6.27544C3.8593 5.96307 3.8126 5.70822 3.80579 5.70908C3.79889 5.71002 3.51003 5.80701 3.1639 5.92453Z" fill="#623A95"/>
</svg>
