<svg width="112" height="112" viewBox="0 0 112 112" fill="none" xmlns="http://www.w3.org/2000/svg">
<g clip-path="url(#clip0_326_9142)">
<path d="M84.4375 50.3125C86.8537 50.3125 88.8125 48.3537 88.8125 45.9375C88.8125 43.5213 86.8537 41.5625 84.4375 41.5625C82.0213 41.5625 80.0625 43.5213 80.0625 45.9375C80.0625 48.3537 82.0213 50.3125 84.4375 50.3125Z" fill="url(#paint0_linear_326_9142)"/>
<path d="M94.5 8.75H88.8125V4.375C88.8125 1.95869 86.8538 0 84.4375 0C82.0212 0 80.0625 1.95869 80.0625 4.375V8.75H60.1562V4.375C60.1562 1.95869 58.1976 0 55.7812 0C53.3649 0 51.4062 1.95869 51.4062 4.375V8.75H31.7188V4.375C31.7188 1.95869 29.7601 0 27.3438 0C24.9274 0 22.9688 1.95869 22.9688 4.375V8.75H17.5C7.8505 8.75 0 16.6005 0 26.25V94.5C0 104.149 7.8505 112 17.5 112H50.9688C53.3851 112 55.3438 110.041 55.3438 107.625C55.3438 105.209 53.3851 103.25 50.9688 103.25H17.5C12.6753 103.25 8.75 99.3248 8.75 94.5V26.25C8.75 21.4253 12.6753 17.5 17.5 17.5H22.9688V21.875C22.9688 24.2913 24.9274 26.25 27.3438 26.25C29.7601 26.25 31.7188 24.2913 31.7188 21.875V17.5H51.4062V21.875C51.4062 24.2913 53.3649 26.25 55.7812 26.25C58.1976 26.25 60.1562 24.2913 60.1562 21.875V17.5H80.0625V21.875C80.0625 24.2913 82.0212 26.25 84.4375 26.25C86.8538 26.25 88.8125 24.2913 88.8125 21.875V17.5H94.5C99.3248 17.5 103.25 21.4253 103.25 26.25V51.1875C103.25 53.6038 105.209 55.5625 107.625 55.5625C110.041 55.5625 112 53.6038 112 51.1875V26.25C112 16.6005 104.149 8.75 94.5 8.75Z" fill="url(#paint1_linear_326_9142)"/>
<path d="M85.5312 59.0625C70.9362 59.0625 59.0625 70.9362 59.0625 85.5312C59.0625 100.126 70.9362 112 85.5312 112C100.126 112 112 100.126 112 85.5312C112 70.9362 100.126 59.0625 85.5312 59.0625ZM85.5312 103.25C75.7612 103.25 67.8125 95.3015 67.8125 85.5312C67.8125 75.761 75.7612 67.8125 85.5312 67.8125C95.3013 67.8125 103.25 75.761 103.25 85.5312C103.25 95.3015 95.3013 103.25 85.5312 103.25Z" fill="url(#paint2_linear_326_9142)"/>
<path d="M91.875 81.1562H89.9062V76.5625C89.9062 74.1462 87.9476 72.1875 85.5312 72.1875C83.1149 72.1875 81.1562 74.1462 81.1562 76.5625V85.5312C81.1562 87.9476 83.1149 89.9062 85.5312 89.9062H91.875C94.2913 89.9062 96.25 87.9476 96.25 85.5312C96.25 83.1149 94.2913 81.1562 91.875 81.1562Z" fill="url(#paint3_linear_326_9142)"/>
<path d="M65.4062 50.3125C67.8225 50.3125 69.7812 48.3537 69.7812 45.9375C69.7812 43.5213 67.8225 41.5625 65.4062 41.5625C62.99 41.5625 61.0312 43.5213 61.0312 45.9375C61.0312 48.3537 62.99 50.3125 65.4062 50.3125Z" fill="url(#paint4_linear_326_9142)"/>
<path d="M46.375 69.3438C48.7912 69.3438 50.75 67.385 50.75 64.9688C50.75 62.5525 48.7912 60.5938 46.375 60.5938C43.9588 60.5938 42 62.5525 42 64.9688C42 67.385 43.9588 69.3438 46.375 69.3438Z" fill="url(#paint5_linear_326_9142)"/>
<path d="M27.3438 50.3125C29.76 50.3125 31.7188 48.3537 31.7188 45.9375C31.7188 43.5213 29.76 41.5625 27.3438 41.5625C24.9275 41.5625 22.9688 43.5213 22.9688 45.9375C22.9688 48.3537 24.9275 50.3125 27.3438 50.3125Z" fill="url(#paint6_linear_326_9142)"/>
<path d="M27.3438 69.3438C29.76 69.3438 31.7188 67.385 31.7188 64.9688C31.7188 62.5525 29.76 60.5938 27.3438 60.5938C24.9275 60.5938 22.9688 62.5525 22.9688 64.9688C22.9688 67.385 24.9275 69.3438 27.3438 69.3438Z" fill="url(#paint7_linear_326_9142)"/>
<path d="M27.3438 88.375C29.76 88.375 31.7188 86.4162 31.7188 84C31.7188 81.5838 29.76 79.625 27.3438 79.625C24.9275 79.625 22.9688 81.5838 22.9688 84C22.9688 86.4162 24.9275 88.375 27.3438 88.375Z" fill="url(#paint8_linear_326_9142)"/>
<path d="M46.375 88.375C48.7912 88.375 50.75 86.4162 50.75 84C50.75 81.5838 48.7912 79.625 46.375 79.625C43.9588 79.625 42 81.5838 42 84C42 86.4162 43.9588 88.375 46.375 88.375Z" fill="url(#paint9_linear_326_9142)"/>
<path d="M46.375 50.3125C48.7912 50.3125 50.75 48.3537 50.75 45.9375C50.75 43.5213 48.7912 41.5625 46.375 41.5625C43.9588 41.5625 42 43.5213 42 45.9375C42 48.3537 43.9588 50.3125 46.375 50.3125Z" fill="url(#paint10_linear_326_9142)"/>
</g>
<defs>
<linearGradient id="paint0_linear_326_9142" x1="84.4375" y1="41.5625" x2="84.4375" y2="50.3125" gradientUnits="userSpaceOnUse">
<stop stop-color="#623A95" stop-opacity="0.6"/>
<stop offset="1" stop-color="#623A95"/>
</linearGradient>
<linearGradient id="paint1_linear_326_9142" x1="56" y1="0" x2="56" y2="112" gradientUnits="userSpaceOnUse">
<stop stop-color="#623A95" stop-opacity="0.6"/>
<stop offset="1" stop-color="#623A95"/>
</linearGradient>
<linearGradient id="paint2_linear_326_9142" x1="85.5312" y1="59.0625" x2="85.5312" y2="112" gradientUnits="userSpaceOnUse">
<stop stop-color="#623A95" stop-opacity="0.6"/>
<stop offset="1" stop-color="#623A95"/>
</linearGradient>
<linearGradient id="paint3_linear_326_9142" x1="88.7031" y1="72.1875" x2="88.7031" y2="89.9062" gradientUnits="userSpaceOnUse">
<stop stop-color="#623A95" stop-opacity="0.6"/>
<stop offset="1" stop-color="#623A95"/>
</linearGradient>
<linearGradient id="paint4_linear_326_9142" x1="65.4062" y1="41.5625" x2="65.4062" y2="50.3125" gradientUnits="userSpaceOnUse">
<stop stop-color="#623A95" stop-opacity="0.6"/>
<stop offset="1" stop-color="#623A95"/>
</linearGradient>
<linearGradient id="paint5_linear_326_9142" x1="46.375" y1="60.5938" x2="46.375" y2="69.3438" gradientUnits="userSpaceOnUse">
<stop stop-color="#623A95" stop-opacity="0.6"/>
<stop offset="1" stop-color="#623A95"/>
</linearGradient>
<linearGradient id="paint6_linear_326_9142" x1="27.3438" y1="41.5625" x2="27.3438" y2="50.3125" gradientUnits="userSpaceOnUse">
<stop stop-color="#623A95" stop-opacity="0.6"/>
<stop offset="1" stop-color="#623A95"/>
</linearGradient>
<linearGradient id="paint7_linear_326_9142" x1="27.3438" y1="60.5938" x2="27.3438" y2="69.3438" gradientUnits="userSpaceOnUse">
<stop stop-color="#623A95" stop-opacity="0.6"/>
<stop offset="1" stop-color="#623A95"/>
</linearGradient>
<linearGradient id="paint8_linear_326_9142" x1="27.3438" y1="79.625" x2="27.3438" y2="88.375" gradientUnits="userSpaceOnUse">
<stop stop-color="#623A95" stop-opacity="0.6"/>
<stop offset="1" stop-color="#623A95"/>
</linearGradient>
<linearGradient id="paint9_linear_326_9142" x1="46.375" y1="79.625" x2="46.375" y2="88.375" gradientUnits="userSpaceOnUse">
<stop stop-color="#623A95" stop-opacity="0.6"/>
<stop offset="1" stop-color="#623A95"/>
</linearGradient>
<linearGradient id="paint10_linear_326_9142" x1="46.375" y1="41.5625" x2="46.375" y2="50.3125" gradientUnits="userSpaceOnUse">
<stop stop-color="#623A95" stop-opacity="0.6"/>
<stop offset="1" stop-color="#623A95"/>
</linearGradient>
<clipPath id="clip0_326_9142">
<rect width="112" height="112" fill="white"/>
</clipPath>
</defs>
</svg>
