<svg width="112" height="112" viewBox="0 0 112 112" fill="none" xmlns="http://www.w3.org/2000/svg">
<g clip-path="url(#clip0_326_9120)">
<path d="M6.61673 89.1908C5.85876 88.6938 4.84149 88.9052 4.34456 89.6634C1.50238 93.9984 0 99.0256 0 104.202V110.099C0 111.005 0.734779 111.74 1.64111 111.74C2.54744 111.74 3.28222 111.005 3.28222 110.099V104.202C3.28222 99.6667 4.59883 95.2618 7.08937 91.4632C7.5863 90.7052 7.37471 89.6877 6.61673 89.1908Z" fill="url(#paint0_linear_326_9120)"/>
<path d="M26.3114 97.5068H12.7937C11.2588 97.5068 10.0098 98.7558 10.0098 100.291V105.332C10.0098 106.867 11.2588 108.116 12.7937 108.116H26.3114C27.8464 108.116 29.0954 106.867 29.0954 105.332V100.291C29.0954 98.7558 27.8464 97.5068 26.3114 97.5068ZM25.8132 104.834H13.292V100.789H25.8132V104.834Z" fill="url(#paint1_linear_326_9120)"/>
<path d="M49.6699 19.3184C46.0247 19.3184 43.0591 22.284 43.0591 25.9292C43.0591 29.5744 46.0247 32.54 49.6699 32.54C53.3154 32.54 56.281 29.5744 56.281 25.9292C56.281 22.284 53.3154 19.3184 49.6699 19.3184ZM49.6699 29.2578C47.8345 29.2578 46.3413 27.7646 46.3413 25.9292C46.3413 24.0938 47.8345 22.6006 49.6699 22.6006C51.5053 22.6006 52.9987 24.0938 52.9987 25.9292C52.9987 27.7646 51.5053 29.2578 49.6699 29.2578Z" fill="url(#paint2_linear_326_9120)"/>
<path d="M98.6737 59.976C97.9018 59.5009 96.8911 59.7412 96.4158 60.5132C95.9405 61.2849 96.1812 62.2958 96.9528 62.7709C104.32 67.3069 108.718 75.172 108.718 83.8099C108.718 97.4239 97.6423 108.499 84.0283 108.499C70.4143 108.499 59.3388 97.4237 59.3388 83.8099C59.3388 70.1961 70.4143 59.1204 84.0283 59.1204C86.3718 59.1204 88.6925 59.4493 90.9262 60.0981C91.7962 60.3501 92.7071 59.8501 92.9598 58.9797C93.2126 58.1093 92.7119 57.1988 91.8417 56.946C89.3104 56.211 86.6814 55.8382 84.0283 55.8382C71.3092 55.8382 60.5471 64.3719 57.1633 76.0142L53.4973 74.5184V67.6699C58.8992 63.3925 62.2295 56.8001 62.2295 49.6608V48.8287C66.1688 48.5836 69.2992 45.3027 69.2992 41.3028C69.2992 40.1831 69.0522 39.1205 68.6126 38.1641L68.6137 30.6896C70.3141 30.2603 71.5779 28.7222 71.5779 26.8903V24.968C71.5779 22.886 69.9464 21.1828 67.8955 21.0576L67.9019 20.6907L67.6898 16.8014C67.4202 11.8573 64.3448 7.44757 59.821 5.47495L59.5843 5.24345C56.8101 2.53212 53.0045 1.19013 49.1438 1.56211L47.397 1.73038L46.3313 1.27415C43.0447 -0.133701 39.2748 -0.133701 35.9886 1.27415L34.923 1.73038L33.1762 1.56211C29.3154 1.19013 25.51 2.53212 22.7361 5.24345L22.4994 5.47495C17.9758 7.44735 14.9002 11.8571 14.6308 16.8014L14.4135 20.7804L14.3925 21.2031C12.7593 21.6773 11.561 23.1841 11.561 24.968V26.8903C11.561 28.4323 12.4575 29.7656 13.7549 30.406V38.0595C13.2846 39.0426 13.0208 40.1424 13.0208 41.3028C13.0208 45.3029 16.1511 48.5838 20.0904 48.8287V49.7263C20.0904 56.9681 23.5243 63.6621 29.0743 67.9349V74.5184L16.501 79.6485C13.8704 80.7218 11.4389 82.206 9.27377 84.0604C8.58538 84.6499 8.5053 85.686 9.095 86.3744C9.4195 86.7534 9.87945 86.9479 10.3422 86.9479C10.7201 86.9479 11.0996 86.8182 11.409 86.5532C13.3063 84.9283 15.4367 83.6274 17.741 82.6874L27.0293 78.8977L39.7621 110.75C40.0113 111.373 40.6148 111.782 41.2859 111.782C41.957 111.782 42.5607 111.373 42.8097 110.75L55.5423 78.8977L56.4285 79.2592C56.185 80.7408 56.0563 82.2605 56.0563 83.8099C56.0563 99.2337 68.6045 111.782 84.028 111.782C99.4518 111.782 112 99.2335 112 83.8099C112 74.0236 107.018 65.114 98.6737 59.976ZM62.2295 33.7766V30.8128H65.3312L65.3306 34.6626C64.3971 34.1583 63.3457 33.846 62.2295 33.7766ZM49.6702 35.8221C44.215 35.8221 39.777 31.3841 39.777 25.9291C39.777 20.474 44.215 16.036 49.6702 16.036C55.1253 16.036 59.5633 20.474 59.5633 25.9291C59.5633 31.3841 55.1253 35.8221 49.6702 35.8221ZM62.2295 45.5349V37.0705C64.3566 37.3066 66.017 39.1138 66.017 41.3028C66.017 43.4918 64.3566 45.2988 62.2295 45.5349ZM68.2955 24.9678V26.8901C68.2955 27.2433 68.0082 27.5304 67.6552 27.5304H62.7446C62.8085 27.005 62.8455 26.4713 62.8455 25.9289C62.8455 25.3864 62.8087 24.8527 62.7446 24.3274H67.6552C68.0084 24.3276 68.2955 24.6149 68.2955 24.9678ZM17.9078 16.98C18.1145 13.1879 20.5217 9.81492 24.0407 8.38694C24.2383 8.30663 24.4184 8.18891 24.5707 8.0399L25.0302 7.59067C27.1109 5.55701 29.964 4.55068 32.8615 4.82923L35.0261 5.03776C35.2994 5.06424 35.5764 5.02135 35.8293 4.91282L37.2807 4.29117C39.7461 3.23539 42.5736 3.23539 45.039 4.29117L46.4904 4.91282C46.7434 5.02135 47.0199 5.06424 47.2937 5.03776L49.4582 4.82923C52.3546 4.55046 55.2091 5.55701 57.2896 7.59045L57.7491 8.03968C57.9016 8.18869 58.0817 8.30663 58.2793 8.38694C61.798 9.81492 64.2054 13.1879 64.412 16.98L64.6284 20.9508C64.6288 20.9576 64.6271 20.9917 64.6236 21.0456H61.903C59.9584 16.1923 55.2097 12.7538 49.67 12.7538C44.1303 12.7538 39.3813 16.1923 37.437 21.0456H28.4281C27.5218 21.0456 26.787 21.7804 26.787 22.6867C26.787 23.593 27.5218 24.3278 28.4281 24.3278H36.5954C36.5315 24.8532 36.4945 25.3869 36.4945 25.9293C36.4945 26.4717 36.5313 27.0054 36.5954 27.5308H15.4837C15.1306 27.5308 14.8435 27.2435 14.8435 26.8906V24.9683C14.8435 24.6151 15.1308 24.328 15.4837 24.328H21.4344C22.3407 24.328 23.0755 23.5932 23.0755 22.6869C23.0755 21.7806 22.3407 21.0458 21.4344 21.0458H17.6865L17.6911 20.951L17.9078 16.98ZM20.0907 33.7766C18.9933 33.8449 17.959 34.1484 17.0373 34.6379V30.8126H20.0907V33.7766ZM16.3032 41.3026C16.3032 39.1135 17.9636 37.3063 20.0907 37.0702V45.5349C17.9636 45.2988 16.3032 43.4918 16.3032 41.3026ZM23.3729 49.726V30.8126H37.437C39.3816 35.6659 44.1303 39.1043 49.67 39.1043C53.285 39.1043 56.5642 37.64 58.9471 35.2744V49.6608C58.9471 57.9736 53.6833 65.4258 45.8488 68.2054L45.6874 68.2627C42.6889 69.3263 39.3888 69.3198 36.3947 68.2437C28.6058 65.4441 23.3729 58.0027 23.3729 49.726ZM35.2847 71.3322C37.1488 72.0022 39.108 72.337 41.068 72.337C43.0043 72.337 44.941 72.0099 46.7852 71.3556L46.9464 71.2983C48.0845 70.8946 49.1759 70.4062 50.2149 69.8419V75.2326L43.5874 80.9283C42.2314 82.0937 40.1934 82.0856 38.8463 80.91L32.3565 75.2444V70.0373C33.2935 70.5311 34.2692 70.9672 35.2847 71.3322ZM41.2859 105.719L30.0684 77.6577L30.1108 77.6404L36.6882 83.3826C37.9794 84.5099 39.6034 85.0738 41.2284 85.0738C42.8347 85.0738 44.4419 84.5219 45.727 83.4176L52.4529 77.6371L52.5034 77.6577L41.2859 105.719Z" fill="url(#paint3_linear_326_9120)"/>
<path d="M85.3586 69.6358C84.6569 70.1452 83.7142 70.1452 83.0125 69.6358C78.8773 66.6323 73.1925 66.7529 69.1882 69.9287C64.3703 73.7501 63.4301 80.6391 67.0473 85.6123L71.9315 92.3266L72.6857 99.4742C72.9238 101.729 74.8128 103.429 77.0798 103.429C79.2044 103.429 81.0307 101.913 81.4223 99.8249L82.7586 92.699C82.8875 92.0133 83.4873 91.5152 84.1853 91.5152C84.8833 91.5152 85.4833 92.013 85.612 92.699L86.9485 99.8249C87.3402 101.913 89.1664 103.429 91.2911 103.429C93.5578 103.429 95.4468 101.729 95.6849 99.4742L96.4391 92.3266L101.323 85.6121C104.941 80.6391 104 73.7501 99.1824 69.9287C95.1788 66.7531 89.494 66.6321 85.3586 69.6358ZM97.1426 72.5003C100.578 75.2247 101.248 80.136 98.6691 83.6815L93.5263 90.7516C93.3569 90.9846 93.2517 91.2581 93.2213 91.5448L92.4206 99.1298C92.3596 99.7094 91.8738 100.147 91.2911 100.147C90.7447 100.147 90.2751 99.7569 90.1743 99.2199L88.838 92.0942C88.4185 89.8568 86.4619 88.233 84.1853 88.233C81.9092 88.233 79.9526 89.8566 79.5329 92.094L78.1966 99.2199C78.0957 99.7569 77.6264 100.147 77.0798 100.147C76.4968 100.147 76.0111 99.7094 75.95 99.1298L75.1496 91.5448C75.1192 91.2581 75.0141 90.9846 74.8446 90.7516L69.7015 83.6815C67.1226 80.136 67.7928 75.2247 71.228 72.5003C74.0824 70.236 78.1355 70.1502 81.0836 72.2913C82.9387 73.6385 85.4317 73.6385 87.2872 72.2913C90.2358 70.1502 94.288 70.2362 97.1426 72.5003Z" fill="url(#paint4_linear_326_9120)"/>
<path d="M80.9222 76.7186L80.9178 76.716C80.15 76.2357 79.1366 76.4692 78.6563 77.2378C78.176 78.0065 78.4097 79.019 79.1784 79.4993C79.1839 79.503 79.194 79.5091 79.1999 79.5126C80.6902 80.4185 82.4359 80.8715 84.1818 80.8715C85.93 80.8715 87.6781 80.4174 89.1693 79.5094C89.9434 79.038 90.189 78.0282 89.7176 77.2543C89.2461 76.4799 88.236 76.2348 87.4623 76.7061C85.5017 77.8998 82.8666 77.9002 80.9222 76.7186Z" fill="url(#paint5_linear_326_9120)"/>
</g>
<defs>
<linearGradient id="paint0_linear_326_9120" x1="3.67911" y1="88.9219" x2="3.67911" y2="111.74" gradientUnits="userSpaceOnUse">
<stop stop-color="#623A95" stop-opacity="0.6"/>
<stop offset="1" stop-color="#623A95"/>
</linearGradient>
<linearGradient id="paint1_linear_326_9120" x1="19.5526" y1="97.5068" x2="19.5526" y2="108.116" gradientUnits="userSpaceOnUse">
<stop stop-color="#623A95" stop-opacity="0.6"/>
<stop offset="1" stop-color="#623A95"/>
</linearGradient>
<linearGradient id="paint2_linear_326_9120" x1="49.67" y1="19.3184" x2="49.67" y2="32.54" gradientUnits="userSpaceOnUse">
<stop stop-color="#623A95" stop-opacity="0.6"/>
<stop offset="1" stop-color="#623A95"/>
</linearGradient>
<linearGradient id="paint3_linear_326_9120" x1="60.3501" y1="0.218262" x2="60.3501" y2="111.782" gradientUnits="userSpaceOnUse">
<stop stop-color="#623A95" stop-opacity="0.6"/>
<stop offset="1" stop-color="#623A95"/>
</linearGradient>
<linearGradient id="paint4_linear_326_9120" x1="84.1853" y1="67.4624" x2="84.1853" y2="103.429" gradientUnits="userSpaceOnUse">
<stop stop-color="#623A95" stop-opacity="0.6"/>
<stop offset="1" stop-color="#623A95"/>
</linearGradient>
<linearGradient id="paint5_linear_326_9120" x1="84.182" y1="76.4663" x2="84.182" y2="80.8715" gradientUnits="userSpaceOnUse">
<stop stop-color="#623A95" stop-opacity="0.6"/>
<stop offset="1" stop-color="#623A95"/>
</linearGradient>
<clipPath id="clip0_326_9120">
<rect width="112" height="112" fill="white"/>
</clipPath>
</defs>
</svg>
