<svg width="107" height="88" viewBox="0 0 107 88" fill="none" xmlns="http://www.w3.org/2000/svg">
<path d="M52.6939 66.2955C52.0187 66.2955 51.4881 65.7649 51.4881 65.0897V54.2374C51.4881 50.1376 48.1601 46.8096 44.0603 46.8096H41.9622L38.1277 50.7405C37.9107 50.9817 37.5972 51.1023 37.2596 51.1023C36.946 51.1023 36.6325 50.9817 36.3914 50.7405L32.5569 46.8096H30.4588C26.359 46.8096 23.031 50.1376 23.031 54.2374V65.0897C23.031 65.7649 22.5004 66.2955 21.8252 66.2955C21.1499 66.2955 20.6194 65.7649 20.6194 65.0897V54.2374C20.6194 48.8112 25.0326 44.3979 30.4588 44.3979H33.0633C33.3769 44.3979 33.6904 44.5185 33.9315 44.7597L37.2596 48.1601L40.5876 44.7597C40.8046 44.5185 41.1182 44.3979 41.4558 44.3979H44.0603C49.4865 44.3979 53.8997 48.8112 53.8997 54.2374V65.0897C53.8997 65.7649 53.3692 66.2955 52.6939 66.2955Z" fill="url(#paint0_linear_547_169)"/>
<path d="M33.0633 46.8336C32.388 46.8336 31.8575 46.303 31.8575 45.6278V41.8416C31.8575 41.1663 32.388 40.6357 33.0633 40.6357C33.7385 40.6357 34.2691 41.1663 34.2691 41.8416V45.6278C34.2691 46.2789 33.7385 46.8336 33.0633 46.8336Z" fill="url(#paint1_linear_547_169)"/>
<path d="M41.4557 46.8335C40.7805 46.8335 40.2499 46.303 40.2499 45.6277V42.0344C40.2499 41.3592 40.7805 40.8286 41.4557 40.8286C42.131 40.8286 42.6616 41.3592 42.6616 42.0344V45.6277C42.6616 46.2789 42.131 46.8335 41.4557 46.8335Z" fill="url(#paint2_linear_547_169)"/>
<path d="M37.3801 44.6631C37.356 44.6631 37.356 44.6631 37.3801 44.6631C33.3527 44.6631 28.9394 41.4798 28.7947 34.4861C28.7706 33.8108 29.3012 33.2803 29.9764 33.2562C30.6517 33.232 31.1822 33.7626 31.2064 34.4379C31.3269 39.7917 34.4862 42.2515 37.356 42.2515C40.2258 42.2515 43.385 39.8158 43.5297 34.4861C43.5538 33.8108 44.1085 33.3044 44.7597 33.3044C45.4349 33.3285 45.9414 33.8832 45.9414 34.5343C45.7725 41.5039 41.3834 44.6631 37.3801 44.6631Z" fill="url(#paint3_linear_547_169)"/>
<path d="M44.7356 35.7405C44.6391 35.7405 44.5426 35.7405 44.4462 35.7164C43.9156 35.5958 43.5298 35.1135 43.5298 34.5829C43.4333 31.5925 42.8545 30.0973 42.4445 29.3979C38.803 31.2549 35.7643 30.0973 33.9074 29.3979C33.4733 29.2291 32.9186 29.0121 32.581 28.9638C32.4604 32.1472 31.1582 34.8964 31.0858 35.017C30.8929 35.4029 30.5311 35.644 30.097 35.6922C29.6871 35.7405 29.253 35.5476 29.0118 35.2099C26.6967 32.0266 26.5278 28.3368 28.5295 25.1052C30.8929 21.2949 35.8367 18.835 39.8159 19.4862C42.6375 19.9444 44.615 21.8495 45.4349 24.8158C49.4623 28.2403 45.9414 34.8482 45.7967 35.1376C45.5796 35.4993 45.1697 35.7405 44.7356 35.7405ZM38.4895 21.7772C35.6196 21.7772 32.2675 23.6824 30.6035 26.3593C29.8318 27.6133 29.2047 29.3738 29.7835 31.4237C30.0006 30.5073 30.1935 29.422 30.1694 28.3127C30.1694 28.0715 30.2417 27.8304 30.3623 27.6374C31.4717 25.9252 33.3045 26.6004 34.7515 27.1551C36.6566 27.8786 39.02 28.7709 42.0587 26.8657C42.4204 26.6246 42.9027 26.6246 43.2886 26.8416C43.5298 26.9622 44.3015 27.4927 44.9526 29.0603C44.8803 28.0715 44.5426 27.131 43.6745 26.504C43.4333 26.3352 43.2645 26.0699 43.1921 25.8046C42.6857 23.5377 41.4075 22.2354 39.43 21.8978C39.1406 21.8013 38.803 21.7772 38.4895 21.7772Z" fill="url(#paint4_linear_547_169)"/>
<path d="M37.2595 66.2953C36.5843 66.2953 36.0537 65.7647 36.0537 65.0894V49.8962C36.0537 49.221 36.5843 48.6904 37.2595 48.6904C37.9348 48.6904 38.4653 49.221 38.4653 49.8962V65.0894C38.4653 65.7647 37.9348 66.2953 37.2595 66.2953Z" fill="url(#paint5_linear_547_169)"/>
<path d="M26.769 66.2956C26.0937 66.2956 25.5632 65.765 25.5632 65.0898V54.3098C25.5632 53.6346 26.0937 53.104 26.769 53.104C27.4442 53.104 27.9748 53.6346 27.9748 54.3098V65.0898C27.9748 65.765 27.4442 66.2956 26.769 66.2956Z" fill="url(#paint6_linear_547_169)"/>
<path d="M47.7501 66.2956C47.0748 66.2956 46.5443 65.765 46.5443 65.0898V54.3098C46.5443 53.6346 47.0748 53.104 47.7501 53.104C48.4253 53.104 48.9559 53.6346 48.9559 54.3098V65.0898C48.9559 65.765 48.4012 66.2956 47.7501 66.2956Z" fill="url(#paint7_linear_547_169)"/>
<path d="M97.6947 73.6268C97.0195 73.6268 96.4889 73.0962 96.4889 72.4209V10.7558C96.4889 6.14963 92.7509 2.41162 88.1447 2.41162H18.0148C13.4086 2.41162 9.67059 6.14963 9.67059 10.7558V72.4209C9.67059 73.0962 9.14004 73.6268 8.46478 73.6268C7.78953 73.6268 7.25897 73.0962 7.25897 72.4209V10.7558C7.25897 4.82324 12.0822 0 18.0148 0H88.1447C94.0773 0 98.9005 4.82324 98.9005 10.7558V72.4209C98.9005 73.0962 98.37 73.6268 97.6947 73.6268Z" fill="url(#paint8_linear_547_169)"/>
<path d="M90.3634 66.2953H15.772C15.0967 66.2953 14.5662 65.7648 14.5662 65.0895V10.7557C14.5662 8.8988 16.1337 7.30713 18.0148 7.30713H88.1447C90.0016 7.30713 91.5933 8.87468 91.5933 10.7557V65.1136C91.5692 65.7648 91.0386 66.2953 90.3634 66.2953ZM16.9778 63.8837H89.1576V10.7557C89.1576 10.2011 88.6752 9.71875 88.1206 9.71875H18.0148C17.4601 9.71875 16.9778 10.2011 16.9778 10.7557V63.8837Z" fill="url(#paint9_linear_547_169)"/>
<path d="M97.7429 88.0002H8.39244C3.76213 88.0002 0 84.2381 0 79.6078V72.4211C0 71.7459 0.530556 71.2153 1.20581 71.2153H104.93C105.605 71.2153 106.135 71.7459 106.135 72.4211V79.6078C106.135 84.2381 102.373 88.0002 97.7429 88.0002ZM2.41162 73.627V79.6078C2.41162 82.9117 5.08852 85.5886 8.39244 85.5886H97.7429C101.047 85.5886 103.724 82.9117 103.724 79.6078V73.627H2.41162Z" fill="url(#paint10_linear_547_169)"/>
<path d="M60.2181 83.7556H45.9172C43.6503 83.7556 41.7933 81.8986 41.7933 79.6317C41.7933 77.3648 43.6503 75.5078 45.9172 75.5078H60.2181C62.485 75.5078 64.342 77.3648 64.342 79.6317C64.342 81.8986 62.5091 83.7556 60.2181 83.7556ZM45.9172 77.8953C44.9767 77.8953 44.205 78.667 44.205 79.6076C44.205 80.5481 44.9767 81.3198 45.9172 81.3198H60.2181C61.1586 81.3198 61.9304 80.5481 61.9304 79.6076C61.9304 78.667 61.1586 77.8953 60.2181 77.8953H45.9172Z" fill="url(#paint11_linear_547_169)"/>
<path d="M84.0691 43.626H56.3596C55.6843 43.626 55.1537 43.0955 55.1537 42.4202V14.7107C55.1537 14.0354 55.6843 13.5049 56.3596 13.5049H84.045C84.7202 13.5049 85.2508 14.0354 85.2508 14.7107V42.3961C85.2749 43.0713 84.7443 43.626 84.0691 43.626ZM57.5654 41.2144H82.8391V15.9165H57.5654V41.2144Z" fill="url(#paint12_linear_547_169)"/>
<path d="M78.2812 43.626C77.6059 43.626 77.0754 43.0955 77.0754 42.4202V36.7288C77.0754 34.2448 75.0496 32.2432 72.5898 32.2432H67.8389C65.3549 32.2432 63.3533 34.2689 63.3533 36.7288V42.4202C63.3533 43.0955 62.8227 43.626 62.1475 43.626C61.4722 43.626 60.9417 43.0955 60.9417 42.4202V36.7288C60.9417 32.9184 64.0526 29.8315 67.8389 29.8315H72.5898C76.4001 29.8315 79.487 32.9425 79.487 36.7288V42.4202C79.487 43.0713 78.9564 43.626 78.2812 43.626Z" fill="url(#paint13_linear_547_169)"/>
<path d="M70.2264 28.2884C67.2601 28.2884 64.8243 25.8768 64.8243 22.8864C64.8243 19.896 67.236 17.4844 70.2264 17.4844C73.2168 17.4844 75.6284 19.896 75.6284 22.8864C75.6284 25.8768 73.1927 28.2884 70.2264 28.2884ZM70.2264 19.9201C68.5865 19.9201 67.236 21.2465 67.236 22.9105C67.236 24.5504 68.5623 25.9009 70.2264 25.9009C71.8904 25.9009 73.2168 24.5745 73.2168 22.9105C73.1927 21.2465 71.8663 19.9201 70.2264 19.9201Z" fill="url(#paint14_linear_547_169)"/>
<path d="M65.9337 43.6264C65.2584 43.6264 64.7278 43.0958 64.7278 42.4206V36.8015C64.7278 36.1263 65.2584 35.5957 65.9337 35.5957C66.6089 35.5957 67.1395 36.1263 67.1395 36.8015V42.4206C67.1395 43.0717 66.5848 43.6264 65.9337 43.6264Z" fill="url(#paint15_linear_547_169)"/>
<path d="M74.519 43.6264C73.8438 43.6264 73.3132 43.0958 73.3132 42.4206V36.8015C73.3132 36.1263 73.8438 35.5957 74.519 35.5957C75.1943 35.5957 75.7249 36.1263 75.7249 36.8015V42.4206C75.7249 43.0717 75.1702 43.6264 74.519 43.6264Z" fill="url(#paint16_linear_547_169)"/>
<path d="M77.1718 60.4353H62.9674C61.3516 60.4353 60.0493 59.133 60.0493 57.5173V50.2101C60.0493 48.5943 61.3516 47.292 62.9674 47.292H77.1718C77.8471 47.292 78.3776 47.8225 78.3776 48.4978V59.2295C78.3776 59.8806 77.8471 60.4353 77.1718 60.4353ZM62.9915 49.7036C62.7021 49.7036 62.4851 49.9448 62.4851 50.2101V57.5173C62.4851 57.8067 62.7262 58.0237 62.9915 58.0237H75.9901V49.7036H62.9915Z" fill="url(#paint17_linear_547_169)"/>
<path d="M61.2551 57.734H57.3965C56.7213 57.734 56.1907 57.2034 56.1907 56.5282V51.1985C56.1907 50.5232 56.7213 49.9927 57.3965 49.9927H61.2551C61.9304 49.9927 62.4609 50.5232 62.4609 51.1985C62.4609 51.8737 61.9304 52.4043 61.2551 52.4043H58.6024V55.3224H61.2551C61.9304 55.3224 62.4609 55.8529 62.4609 56.5282C62.4609 57.2034 61.9304 57.734 61.2551 57.734Z" fill="url(#paint18_linear_547_169)"/>
<path d="M83.0321 59.3019C82.8874 59.3019 82.7668 59.2778 82.6221 59.2296L76.7619 57.1797C76.1348 56.9627 75.7972 56.2633 76.0143 55.6363C76.2313 55.0092 76.9307 54.6716 77.5577 54.8887L81.8022 56.3839V51.1989L77.5577 52.6941C76.9307 52.9111 76.2313 52.5735 76.0143 51.9465C75.7972 51.3195 76.1348 50.6201 76.7619 50.403L82.6221 48.3532C82.9838 48.2326 83.3938 48.2808 83.7073 48.4979C84.0208 48.7149 84.2138 49.1008 84.2138 49.4866V58.072C84.2138 58.4579 84.0208 58.8196 83.7073 59.0608C83.5144 59.2296 83.2732 59.3019 83.0321 59.3019Z" fill="url(#paint19_linear_547_169)"/>
<defs>
<linearGradient id="paint0_linear_547_169" x1="37.2596" y1="44.3979" x2="37.2596" y2="66.2955" gradientUnits="userSpaceOnUse">
<stop stop-color="#88CEF0"/>
<stop offset="1" stop-color="#59A0D1"/>
</linearGradient>
<linearGradient id="paint1_linear_547_169" x1="33.0633" y1="40.6357" x2="33.0633" y2="46.8336" gradientUnits="userSpaceOnUse">
<stop stop-color="#88CEF0"/>
<stop offset="1" stop-color="#59A0D1"/>
</linearGradient>
<linearGradient id="paint2_linear_547_169" x1="41.4557" y1="40.8286" x2="41.4557" y2="46.8335" gradientUnits="userSpaceOnUse">
<stop stop-color="#88CEF0"/>
<stop offset="1" stop-color="#59A0D1"/>
</linearGradient>
<linearGradient id="paint3_linear_547_169" x1="37.3676" y1="33.2554" x2="37.3676" y2="44.6631" gradientUnits="userSpaceOnUse">
<stop stop-color="#88CEF0"/>
<stop offset="1" stop-color="#59A0D1"/>
</linearGradient>
<linearGradient id="paint4_linear_547_169" x1="37.251" y1="19.3818" x2="37.251" y2="35.7405" gradientUnits="userSpaceOnUse">
<stop stop-color="#88CEF0"/>
<stop offset="1" stop-color="#59A0D1"/>
</linearGradient>
<linearGradient id="paint5_linear_547_169" x1="37.2595" y1="48.6904" x2="37.2595" y2="66.2953" gradientUnits="userSpaceOnUse">
<stop stop-color="#88CEF0"/>
<stop offset="1" stop-color="#59A0D1"/>
</linearGradient>
<linearGradient id="paint6_linear_547_169" x1="26.769" y1="53.104" x2="26.769" y2="66.2956" gradientUnits="userSpaceOnUse">
<stop stop-color="#88CEF0"/>
<stop offset="1" stop-color="#59A0D1"/>
</linearGradient>
<linearGradient id="paint7_linear_547_169" x1="47.7501" y1="53.104" x2="47.7501" y2="66.2956" gradientUnits="userSpaceOnUse">
<stop stop-color="#88CEF0"/>
<stop offset="1" stop-color="#59A0D1"/>
</linearGradient>
<linearGradient id="paint8_linear_547_169" x1="53.0797" y1="0" x2="53.0797" y2="73.6268" gradientUnits="userSpaceOnUse">
<stop stop-color="#88CEF0"/>
<stop offset="1" stop-color="#59A0D1"/>
</linearGradient>
<linearGradient id="paint9_linear_547_169" x1="53.0797" y1="7.30713" x2="53.0797" y2="66.2953" gradientUnits="userSpaceOnUse">
<stop stop-color="#88CEF0"/>
<stop offset="1" stop-color="#59A0D1"/>
</linearGradient>
<linearGradient id="paint10_linear_547_169" x1="53.0677" y1="71.2153" x2="53.0677" y2="88.0002" gradientUnits="userSpaceOnUse">
<stop stop-color="#88CEF0"/>
<stop offset="1" stop-color="#59A0D1"/>
</linearGradient>
<linearGradient id="paint11_linear_547_169" x1="53.0677" y1="75.5078" x2="53.0677" y2="83.7556" gradientUnits="userSpaceOnUse">
<stop stop-color="#88CEF0"/>
<stop offset="1" stop-color="#59A0D1"/>
</linearGradient>
<linearGradient id="paint12_linear_547_169" x1="70.2027" y1="13.5049" x2="70.2027" y2="43.626" gradientUnits="userSpaceOnUse">
<stop stop-color="#88CEF0"/>
<stop offset="1" stop-color="#59A0D1"/>
</linearGradient>
<linearGradient id="paint13_linear_547_169" x1="70.2143" y1="29.8315" x2="70.2143" y2="43.626" gradientUnits="userSpaceOnUse">
<stop stop-color="#88CEF0"/>
<stop offset="1" stop-color="#59A0D1"/>
</linearGradient>
<linearGradient id="paint14_linear_547_169" x1="70.2264" y1="17.4844" x2="70.2264" y2="28.2884" gradientUnits="userSpaceOnUse">
<stop stop-color="#88CEF0"/>
<stop offset="1" stop-color="#59A0D1"/>
</linearGradient>
<linearGradient id="paint15_linear_547_169" x1="65.9337" y1="35.5957" x2="65.9337" y2="43.6264" gradientUnits="userSpaceOnUse">
<stop stop-color="#88CEF0"/>
<stop offset="1" stop-color="#59A0D1"/>
</linearGradient>
<linearGradient id="paint16_linear_547_169" x1="74.519" y1="35.5957" x2="74.519" y2="43.6264" gradientUnits="userSpaceOnUse">
<stop stop-color="#88CEF0"/>
<stop offset="1" stop-color="#59A0D1"/>
</linearGradient>
<linearGradient id="paint17_linear_547_169" x1="69.2135" y1="47.292" x2="69.2135" y2="60.4353" gradientUnits="userSpaceOnUse">
<stop stop-color="#88CEF0"/>
<stop offset="1" stop-color="#59A0D1"/>
</linearGradient>
<linearGradient id="paint18_linear_547_169" x1="59.3258" y1="49.9927" x2="59.3258" y2="57.734" gradientUnits="userSpaceOnUse">
<stop stop-color="#88CEF0"/>
<stop offset="1" stop-color="#59A0D1"/>
</linearGradient>
<linearGradient id="paint19_linear_547_169" x1="80.0811" y1="48.2886" x2="80.0811" y2="59.3019" gradientUnits="userSpaceOnUse">
<stop stop-color="#88CEF0"/>
<stop offset="1" stop-color="#59A0D1"/>
</linearGradient>
</defs>
</svg>
