<svg width="65" height="65" viewBox="0 0 65 65" fill="none" xmlns="http://www.w3.org/2000/svg">
<path d="M30.0126 14.2087H27.8793V16.346H30.0126V14.2087Z" fill="white"/>
<path d="M36.4142 14.2087H34.2809V16.346H36.4142V14.2087Z" fill="white"/>
<path d="M63.0884 45.2111V44.1421C63.0859 43.2923 62.7478 42.478 62.1481 41.8771C61.5484 41.2762 60.7357 40.9375 59.8876 40.935H57.7537V29.1755C57.7516 28.8921 57.6408 28.6204 57.4443 28.4165L55.2997 26.2784C55.6306 25.5908 55.7079 24.808 55.5179 24.0688C55.3278 23.3295 54.8828 22.6815 54.2615 22.2396C53.6403 21.7977 52.8829 21.5905 52.1237 21.6545C51.3645 21.7186 50.6525 22.0499 50.1137 22.5897C49.575 23.1295 49.2444 23.8429 49.1804 24.6036C49.1165 25.3643 49.3234 26.1231 49.7644 26.7456C50.2054 27.368 50.8522 27.814 51.59 28.0044C52.3278 28.1948 53.109 28.1173 53.7953 27.7858L55.6198 29.6138V40.935H53.4859C52.6378 40.9375 51.8251 41.2762 51.2254 41.8771C50.6256 42.478 50.2876 43.2923 50.2851 44.1421V45.2111H48.1512V37.3002C48.1448 35.7268 47.7533 34.1789 47.0111 32.7922C46.2689 31.4056 45.1987 30.2225 43.8941 29.3466C44.7918 28.8281 45.5499 28.0982 46.1025 27.2199C46.6552 26.3417 46.9858 25.3417 47.0656 24.3065C47.1455 23.2714 46.9723 22.2324 46.5609 21.2794C46.1495 20.3265 45.5125 19.4885 44.7049 18.8379C44.8674 18.3816 44.9504 17.9007 44.9503 17.4161C44.9496 16.4687 44.6349 15.5483 44.0556 14.7995C43.4762 14.0506 42.6651 13.5158 41.7495 13.2789V9.93286C41.7495 7.38112 40.7378 4.9339 38.937 3.12955C37.1362 1.3252 34.6937 0.311523 32.147 0.311523C29.6003 0.311523 27.1578 1.3252 25.357 3.12955C23.5562 4.9339 22.5445 7.38112 22.5445 9.93286V13.2789C21.6289 13.5158 20.8178 14.0506 20.2384 14.7995C19.6591 15.5483 19.3444 16.4687 19.3437 17.4161C19.3436 17.9007 19.4266 18.3816 19.5891 18.8379C18.7815 19.4885 18.1445 20.3265 17.7331 21.2794C17.3218 22.2324 17.1485 23.2714 17.2284 24.3065C17.3083 25.3417 17.6388 26.3417 18.1915 27.2199C18.7441 28.0982 19.5022 28.8281 20.3999 29.3466C19.0954 30.2225 18.0251 31.4056 17.2829 32.7922C16.5407 34.1789 16.1492 35.7268 16.1428 37.3002V45.2111H14.009V44.1421C14.0064 43.2923 13.6684 42.478 13.0686 41.8771C12.4689 41.2762 11.6563 40.9375 10.8081 40.935H8.67423V29.6138L10.4987 27.7858C11.185 28.1173 11.9662 28.1948 12.704 28.0044C13.4418 27.814 14.0886 27.368 14.5296 26.7456C14.9706 26.1231 15.1775 25.3643 15.1136 24.6036C15.0496 23.8429 14.719 23.1295 14.1803 22.5897C13.6415 22.0499 12.9295 21.7186 12.1703 21.6545C11.4111 21.5905 10.6538 21.7977 10.0325 22.2396C9.41124 22.6815 8.96617 23.3295 8.77614 24.0688C8.58611 24.808 8.6634 25.5908 8.99431 26.2784L6.84975 28.4165C6.65323 28.6204 6.54245 28.8921 6.54034 29.1755V40.935H4.40645C3.55832 40.9375 2.74564 41.2762 2.14592 41.8771C1.54619 42.478 1.20815 43.2923 1.20562 44.1421V45.2111C0.922645 45.2111 0.651264 45.3237 0.451173 45.5242C0.251082 45.7247 0.138672 45.9966 0.138672 46.2801V52.6944C0.138672 52.9779 0.251082 53.2498 0.451173 53.4503C0.651264 53.6508 0.922645 53.7634 1.20562 53.7634H6.54034V63.3847C6.54034 63.6683 6.65275 63.9402 6.85284 64.1407C7.05293 64.3411 7.32431 64.4538 7.60728 64.4538H56.6867C56.9697 64.4538 57.2411 64.3411 57.4412 64.1407C57.6413 63.9402 57.7537 63.6683 57.7537 63.3847V53.7634H63.0884C63.3714 53.7634 63.6427 53.6508 63.8428 53.4503C64.0429 53.2498 64.1553 52.9779 64.1553 52.6944V46.2801C64.1553 45.9966 64.0429 45.7247 63.8428 45.5242C63.6427 45.3237 63.3714 45.2111 63.0884 45.2111ZM52.419 25.9684C52.2079 25.9684 52.0016 25.9057 51.8262 25.7883C51.6507 25.6708 51.514 25.5038 51.4332 25.3085C51.3525 25.1131 51.3313 24.8982 51.3725 24.6908C51.4137 24.4835 51.5153 24.293 51.6645 24.1435C51.8137 23.994 52.0038 23.8921 52.2108 23.8509C52.4178 23.8096 52.6323 23.8308 52.8273 23.9117C53.0222 23.9926 53.1888 24.1297 53.3061 24.3055C53.4233 24.4813 53.4859 24.688 53.4859 24.8994C53.4859 25.1829 53.3735 25.4548 53.1734 25.6553C52.9733 25.8558 52.7019 25.9684 52.419 25.9684ZM11.8751 23.8303C12.0861 23.8303 12.2924 23.893 12.4678 24.0105C12.6433 24.128 12.78 24.2949 12.8608 24.4903C12.9415 24.6856 12.9627 24.9006 12.9215 25.1079C12.8803 25.3153 12.7787 25.5058 12.6295 25.6553C12.4803 25.8048 12.2902 25.9066 12.0832 25.9479C11.8762 25.9891 11.6617 25.968 11.4668 25.887C11.2718 25.8061 11.1052 25.6691 10.9879 25.4933C10.8707 25.3175 10.8081 25.1108 10.8081 24.8994C10.8081 24.6159 10.9205 24.3439 11.1206 24.1435C11.3207 23.943 11.5921 23.8303 11.8751 23.8303V23.8303ZM52.419 44.1421C52.419 43.8585 52.5314 43.5866 52.7315 43.3861C52.9315 43.1857 53.2029 43.073 53.4859 43.073H59.8876C60.1705 43.073 60.4419 43.1857 60.642 43.3861C60.8421 43.5866 60.9545 43.8585 60.9545 44.1421V45.2111H52.419V44.1421ZM46.0173 37.3002V45.2111H41.8135C41.909 44.6851 42.1367 44.1921 42.475 43.7786C43.409 42.6925 43.9105 41.2994 43.8834 39.8659C43.8668 38.899 43.6396 37.9473 43.2175 37.0776C42.7955 36.2078 42.1888 35.441 41.4401 34.8307L39.925 36.3488C40.9493 37.3644 41.7495 38.1661 41.7495 39.8659C41.771 40.8022 41.4439 41.713 40.8319 42.4209C40.1829 43.2186 39.7788 44.1878 39.669 45.2111H33.214V37.0116L38.8688 29.4535L41.0987 30.266C42.5376 30.7945 43.7803 31.7521 44.6597 33.0097C45.5391 34.2673 46.0128 35.7647 46.0173 37.3002V37.3002ZM29.3089 28.0424C29.5158 27.9687 29.6948 27.8325 29.8209 27.6524C29.9471 27.4724 30.0143 27.2575 30.0131 27.0375V24.6214C30.7096 24.8051 31.4268 24.8985 32.147 24.8994C32.867 24.8946 33.5836 24.8013 34.2809 24.6214V27.0375C34.2797 27.2575 34.3469 27.4724 34.4731 27.6524C34.5992 27.8325 34.7782 27.9687 34.9851 28.0424L35.7319 28.3096C34.6223 28.8787 33.3936 29.1755 32.147 29.1755C30.9004 29.1755 29.6717 28.8787 28.5621 28.3096L29.3089 28.0424ZM27.6232 20.8798C27.0251 20.2873 26.551 19.5813 26.2286 18.803C25.9061 18.0247 25.7418 17.1898 25.7453 16.3471V13.0758C26.0992 13.1201 26.4556 13.1415 26.8123 13.14C28.4394 13.1052 30.0387 12.711 31.4962 11.9854C32.6932 11.3803 34.0078 11.0446 35.3478 11.0019C35.8101 10.9649 36.2751 11.0216 36.715 11.1685C37.1549 11.3154 37.5609 11.5496 37.9085 11.8571C38.1006 11.9961 38.3139 12.1565 38.5487 12.3061V16.3471C38.5487 18.0482 37.8742 19.6797 36.6737 20.8826C35.4731 22.0855 33.8448 22.7613 32.147 22.7613C31.306 22.7648 30.4727 22.6002 29.6959 22.2771C28.9192 21.9541 28.2145 21.479 27.6232 20.8798V20.8798ZM32.147 31.3136C33.1631 31.3146 34.1737 31.1633 35.1451 30.8646L32.147 34.8735L29.1489 30.8646C30.1203 31.1633 31.1309 31.3146 32.147 31.3136V31.3136ZM40.6826 15.278C41.248 15.2797 41.7898 15.5055 42.1896 15.9061C42.5894 16.3067 42.8148 16.8496 42.8165 17.4161C42.8115 17.845 42.6857 18.2637 42.4537 18.6241C42.3742 18.7439 42.3207 18.8791 42.2968 19.0209C42.2729 19.1627 42.2791 19.308 42.315 19.4473C42.3468 19.5899 42.4078 19.7243 42.4941 19.8421C42.5804 19.9599 42.6902 20.0584 42.8165 20.1315C43.5879 20.5758 44.2009 21.2513 44.5691 22.063C44.9374 22.8747 45.0423 23.7816 44.8691 24.6562C44.696 25.5307 44.2535 26.3288 43.6039 26.9382C42.9543 27.5475 42.1304 27.9375 41.248 28.053L36.4148 26.2891V23.7448C37.7107 22.9945 38.7871 21.9162 39.5361 20.6179C40.2851 19.3195 40.6805 17.8467 40.6826 16.3471V15.278ZM24.6784 9.93286C24.6784 7.94818 25.4653 6.04478 26.8659 4.6414C28.2665 3.23801 30.1662 2.4496 32.147 2.4496C34.1278 2.4496 36.0275 3.23801 37.4281 4.6414C38.8287 6.04478 39.6156 7.94818 39.6156 9.93286V10.4567C39.4769 10.3605 39.3382 10.2536 39.1888 10.1467C38.1167 9.24745 36.7441 8.78902 35.3478 8.86382C33.7208 8.89857 32.1214 9.2928 30.664 10.0184C29.4669 10.6235 28.1524 10.9592 26.8123 11.0019C26.235 11.0309 25.6587 10.9285 25.1265 10.7026C24.9846 10.6434 24.8321 10.6143 24.6784 10.617V9.93286ZM19.3437 23.8303C19.3461 23.0808 19.5443 22.3449 19.9187 21.696C20.293 21.0471 20.8305 20.5077 21.4776 20.1315C21.6038 20.0584 21.7136 19.9599 21.7999 19.8421C21.8862 19.7243 21.9472 19.5899 21.979 19.4473C22.0149 19.308 22.0211 19.1627 21.9972 19.0209C21.9733 18.8791 21.9198 18.7439 21.8403 18.6241C21.6083 18.2637 21.4825 17.845 21.4776 17.4161C21.4793 16.8496 21.7046 16.3067 22.1044 15.9061C22.5042 15.5055 23.046 15.2797 23.6115 15.278V16.3471C23.6076 17.471 23.8263 18.5844 24.2548 19.6231C24.6834 20.6617 25.3133 21.6048 26.1081 22.3978C26.6352 22.9248 27.2309 23.3779 27.8792 23.7448V26.2891L23.046 28.053C22.0245 27.9146 21.0873 27.4111 20.407 26.6352C19.7266 25.8592 19.349 24.8632 19.3437 23.8303ZM18.2767 37.3002C18.2812 35.7647 18.755 34.2673 19.6343 33.0097C20.5137 31.7521 21.7565 30.7945 23.1953 30.266L25.4253 29.4535L31.0801 37.0116V45.2111H24.625C24.5152 44.1878 24.1112 43.2186 23.4621 42.4209C22.8501 41.713 22.5231 40.8022 22.5445 39.8659C22.5445 38.1661 23.3447 37.3644 24.369 36.3488L22.8539 34.8307C22.1052 35.441 21.4985 36.2078 21.0765 37.0776C20.6545 37.9473 20.4272 38.899 20.4106 39.8659C20.3835 41.2994 20.885 42.6925 21.819 43.7786C22.1573 44.1921 22.385 44.6851 22.4805 45.2111H18.2767V37.3002ZM3.33951 44.1421C3.33951 43.8585 3.45192 43.5866 3.65201 43.3861C3.8521 43.1857 4.12348 43.073 4.40645 43.073H10.8081C11.0911 43.073 11.3625 43.1857 11.5626 43.3861C11.7627 43.5866 11.8751 43.8585 11.8751 44.1421V45.2111H3.33951V44.1421ZM55.6198 62.3157H8.67423V53.7634H55.6198V62.3157ZM62.0215 51.6253H2.27256V47.3492H62.0215V51.6253Z" fill="white"/>
</svg>
