<svg width="88" height="88" viewBox="0 0 88 88" fill="none" xmlns="http://www.w3.org/2000/svg">
<path d="M86.5808 34.0643H82.3227C81.9462 34.0643 81.5852 33.9148 81.319 33.6486C81.0529 33.3824 80.9033 33.0214 80.9033 32.6449C80.9033 32.2685 81.0529 31.9075 81.319 31.6413C81.5852 31.3751 81.9462 31.2256 82.3227 31.2256H86.5808C86.9572 31.2256 87.3182 31.3751 87.5844 31.6413C87.8506 31.9075 88.0001 32.2685 88.0001 32.6449C88.0001 33.0214 87.8506 33.3824 87.5844 33.6486C87.3182 33.9148 86.9572 34.0643 86.5808 34.0643Z" fill="url(#paint0_linear_494_3788)"/>
<path d="M82.3228 11.3546H82.2139C82.1764 11.0363 82.137 10.7175 82.076 10.3982C81.1071 5.31827 77.0987 1.2417 72.1018 0.252049C70.2542 -0.121431 68.3466 -0.0793946 66.5172 0.375114C64.6879 0.829623 62.9824 1.68523 61.5244 2.87999C58.944 5.00211 57.2812 8.03756 56.8822 11.3546H31.1168C31.0793 11.0367 31.04 10.7186 30.9791 10.3996C30.8213 9.56987 30.5803 8.75816 30.2598 7.97673C30.1147 7.63162 29.8391 7.35782 29.4931 7.21495C29.147 7.07208 28.7586 7.07172 28.4122 7.21394C28.0659 7.35616 27.7898 7.62945 27.6441 7.97429C27.4983 8.31913 27.4947 8.7076 27.634 9.05509C27.8816 9.66004 28.0678 10.2883 28.1899 10.9304C29.1669 16.0479 26.2798 21.0877 21.4742 22.6527C21.2993 22.7091 21.1134 22.7226 20.9322 22.6919C20.751 22.6613 20.5799 22.5875 20.4333 22.4767C20.2586 22.3479 20.1168 22.1798 20.0191 21.986C19.9214 21.7922 19.8707 21.5781 19.871 21.3611V21.0313C19.883 20.7456 19.983 20.4705 20.1575 20.244C20.3319 20.0174 20.5722 19.8503 20.8454 19.7657C24.2247 18.5376 26.1666 14.9034 25.3613 11.312C25.1057 10.1607 24.5657 9.09169 23.7908 8.20265C23.0158 7.3136 22.0305 6.63282 20.9248 6.22246C19.8191 5.81209 18.6282 5.6852 17.4609 5.85339C16.2935 6.02157 15.1869 6.47946 14.242 7.18526C12.8775 8.21101 11.9228 9.68905 11.5488 11.3546H8.6556C9.04021 8.86359 10.3384 6.60496 12.2973 5.01879C13.4241 4.10317 14.7408 3.45029 16.1516 3.10765C17.5625 2.76501 19.0319 2.74124 20.4531 3.03807C21.9941 3.34986 23.4354 4.03368 24.6516 5.02997C24.9435 5.26783 25.3179 5.37999 25.6925 5.34177C26.0671 5.30356 26.4112 5.1181 26.6491 4.8262C26.8869 4.5343 26.9991 4.15986 26.9609 3.78526C26.9227 3.41066 26.7372 3.06658 26.4453 2.82872C24.8688 1.53956 23.0012 0.655032 21.0049 0.252049C19.1758 -0.116594 17.2881 -0.0786059 15.4753 0.363323C13.6626 0.805252 11.9692 1.64031 10.515 2.80938C7.88475 4.93318 6.18594 7.99856 5.77927 11.3546H5.67743C4.17215 11.3561 2.72894 11.9548 1.66454 13.0192C0.600142 14.0836 0.00150303 15.5268 0 17.0321V82.3226C0.00150303 83.8279 0.600142 85.2711 1.66454 86.3355C2.72894 87.3999 4.17215 87.9985 5.67743 88H73.8052C74.1817 88 74.5427 87.8505 74.8089 87.5843C75.0751 87.3181 75.2246 86.9571 75.2246 86.5806C75.2246 86.2042 75.0751 85.8432 74.8089 85.577C74.5427 85.3108 74.1817 85.1613 73.8052 85.1613H5.67743C4.92486 85.1603 4.2034 84.8609 3.67125 84.3288C3.1391 83.7966 2.8397 83.0751 2.83872 82.3226V80.136C4.39516 81.5428 6.41821 82.3219 8.51615 82.3226H76.6454C77.0225 82.3217 77.384 82.1715 77.6508 81.9049L85.1615 74.394V82.3226C85.1605 83.0751 84.8611 83.7966 84.329 84.3288C83.7968 84.8609 83.0754 85.1603 82.3228 85.1613H79.4841C79.1077 85.1613 78.7466 85.3108 78.4804 85.577C78.2143 85.8432 78.0647 86.2042 78.0647 86.5806C78.0647 86.9571 78.2143 87.3181 78.4804 87.5843C78.7466 87.8505 79.1077 88 79.4841 88H82.3228C83.8281 87.9985 85.2713 87.3999 86.3357 86.3355C87.4001 85.2711 87.9987 83.8279 88.0002 82.3226V17.0321C87.9987 15.5268 87.4001 14.0836 86.3357 13.0192C85.2713 11.9548 83.8281 11.3561 82.3228 11.3546ZM63.3265 5.07397C64.4552 4.13688 65.7811 3.46701 67.2051 3.11441C68.6292 2.7618 70.1145 2.73559 71.55 3.03772C75.4242 3.80293 78.5333 6.97644 79.2873 10.9301C80.2644 16.0476 77.3772 21.0873 72.5716 22.6524C72.3968 22.7089 72.2108 22.7225 72.0296 22.6918C71.8484 22.6612 71.6773 22.5873 71.5307 22.4764C71.356 22.3476 71.2141 22.1796 71.1163 21.9859C71.0186 21.7921 70.9677 21.5781 70.9679 21.3611V21.0313C70.9799 20.7456 71.0799 20.4705 71.2544 20.244C71.4288 20.0174 71.6692 19.8503 71.9423 19.7657C75.3216 18.5376 77.2635 14.9034 76.4582 11.312C76.1989 10.1437 75.6469 9.06046 74.8541 8.164C74.0613 7.26754 73.0536 6.58729 71.9257 6.18712C70.7979 5.78696 69.5868 5.68002 68.4062 5.87634C67.2257 6.07266 66.1144 6.5658 65.1768 7.30946C63.892 8.32793 62.9945 9.75541 62.6335 11.3546H59.7559C60.1341 8.89353 61.4051 6.6578 63.3265 5.07397ZM73.5127 11.3546H65.6216C65.8937 10.6417 66.3494 10.0133 66.9426 9.53324C67.4454 9.13271 68.0334 8.85284 68.6613 8.71517C69.2893 8.5775 69.9404 8.58569 70.5647 8.73911C71.2299 8.90639 71.8451 9.23139 72.3583 9.68665C72.8714 10.1419 73.2673 10.714 73.5127 11.3546ZM15.9442 9.45837C16.4417 9.08521 17.0158 8.82713 17.6251 8.70274C18.2345 8.57836 18.8638 8.59078 19.4677 8.73911C20.133 8.90639 20.7482 9.23139 21.2613 9.68665C21.7745 10.1419 22.1704 10.714 22.4158 11.3546H14.5273C14.8143 10.6032 15.3049 9.94654 15.9442 9.45837ZM2.83872 73.8064V34.0644H76.6454C77.0218 34.0644 77.3828 33.9148 77.649 33.6486C77.9152 33.3825 78.0647 33.0214 78.0647 32.645C78.0647 32.2686 77.9152 31.9076 77.649 31.6414C77.3828 31.3752 77.0218 31.2257 76.6454 31.2257H2.83872V17.0321C2.8397 16.2795 3.1391 15.558 3.67125 15.0259C4.2034 14.4937 4.92486 14.1943 5.67743 14.1933H22.5341C22.35 14.8523 22.0134 15.4587 21.5514 15.9634C21.0895 16.4681 20.5152 16.857 19.8751 17.0986C18.1481 17.7251 17.0323 19.2691 17.0323 21.0309V21.3611C17.0325 22.0262 17.1897 22.6819 17.491 23.2749C17.7922 23.8679 18.2292 24.3814 18.7662 24.7738C19.2745 25.1498 19.8653 25.3986 20.4895 25.4994C21.1136 25.6001 21.7527 25.55 22.3535 25.3531C27.3053 23.7401 30.666 19.2695 31.1516 14.1933H73.631C73.4469 14.8523 73.1103 15.4587 72.6483 15.9634C72.1864 16.4681 71.6121 16.857 70.972 17.0986C69.245 17.7251 68.1292 19.2691 68.1292 21.0309V21.3611C68.1295 22.0262 68.2866 22.6819 68.5879 23.2749C68.8892 23.8679 69.3261 24.3814 69.8631 24.7738C70.3714 25.1498 70.9623 25.3986 71.5864 25.4994C72.2105 25.6001 72.8497 25.55 73.4504 25.3531C78.4018 23.7401 81.7625 19.27 82.2485 14.1933H82.3228C83.0754 14.1943 83.7968 14.4937 84.329 15.0259C84.8611 15.558 85.1605 16.2795 85.1615 17.0321V69.5483H76.6454C76.2689 69.5483 75.9079 69.6979 75.6417 69.9641C75.3755 70.2302 75.226 70.5913 75.226 70.9677V79.4838H8.51615C7.01086 79.4823 5.56766 78.8837 4.50326 77.8193C3.43886 76.7549 2.84022 75.3117 2.83872 73.8064ZM83.1545 72.3871L78.0647 77.4769V72.3871H83.1545Z" fill="url(#paint1_linear_494_3788)"/>
<path d="M21.2904 41.161C21.6668 41.1612 22.0277 41.3108 22.2938 41.577C22.5599 41.8431 22.7095 42.204 22.7098 42.5803C22.7098 42.9568 22.8593 43.3178 23.1255 43.584C23.3917 43.8502 23.7527 43.9997 24.1291 43.9997C24.5056 43.9997 24.8666 43.8502 25.1328 43.584C25.399 43.3178 25.5485 42.9568 25.5485 42.5803C25.5485 41.451 25.0999 40.368 24.3013 39.5694C23.5028 38.7709 22.4197 38.3223 21.2904 38.3223C20.1611 38.3223 19.0781 38.7709 18.2795 39.5694C17.481 40.368 17.0323 41.451 17.0323 42.5803V43.9997C17.0336 45.1286 17.4826 46.2109 18.2809 47.0092C19.0792 47.8075 20.1615 48.2565 21.2904 48.2578C21.6668 48.258 22.0277 48.4076 22.2938 48.6738C22.5599 48.9399 22.7095 49.3008 22.7098 49.6771V51.0965C22.7098 51.4729 22.5602 51.834 22.2941 52.1001C22.0279 52.3663 21.6669 52.5159 21.2904 52.5159C20.914 52.5159 20.553 52.3663 20.2868 52.1001C20.0206 51.834 19.8711 51.4729 19.8711 51.0965C19.8711 50.7201 19.7215 50.359 19.4553 50.0929C19.1892 49.8267 18.8281 49.6771 18.4517 49.6771C18.0753 49.6771 17.7143 49.8267 17.4481 50.0929C17.1819 50.359 17.0323 50.7201 17.0323 51.0965C17.0323 52.2258 17.481 53.3089 18.2795 54.1074C19.0781 54.906 20.1611 55.3546 21.2904 55.3546C22.4197 55.3546 23.5028 54.906 24.3013 54.1074C25.0999 53.3089 25.5485 52.2258 25.5485 51.0965V49.6771C25.5472 48.5482 25.0982 47.4659 24.2999 46.6676C23.5017 45.8694 22.4193 45.4203 21.2904 45.4191C20.9141 45.4188 20.5532 45.2692 20.287 45.0031C20.0209 44.7369 19.8713 44.3761 19.8711 43.9997V42.5803C19.8713 42.204 20.0209 41.8431 20.287 41.577C20.5532 41.3108 20.9141 41.1612 21.2904 41.161Z" fill="url(#paint2_linear_494_3788)"/>
<path d="M32.6453 38.3223C31.5164 38.3235 30.434 38.7726 29.6358 39.5708C28.8375 40.3691 28.3885 41.4514 28.3872 42.5803V53.9352C28.3872 54.3116 28.5367 54.6727 28.8029 54.9389C29.0691 55.205 29.4301 55.3546 29.8066 55.3546C30.183 55.3546 30.544 55.205 30.8102 54.9389C31.0764 54.6727 31.2259 54.3116 31.2259 53.9352V51.0965H34.0646V53.9352C34.0646 54.3116 34.2142 54.6727 34.4804 54.9389C34.7465 55.205 35.1076 55.3546 35.484 55.3546C35.8604 55.3546 36.2215 55.205 36.4876 54.9389C36.7538 54.6727 36.9034 54.3116 36.9034 53.9352V42.5803C36.9021 41.4514 36.4531 40.3691 35.6548 39.5708C34.8565 38.7726 33.7742 38.3235 32.6453 38.3223ZM31.2259 48.2578V42.5803C31.2259 42.2039 31.3755 41.8429 31.6416 41.5767C31.9078 41.3105 32.2688 41.161 32.6453 41.161C33.0217 41.161 33.3827 41.3105 33.6489 41.5767C33.9151 41.8429 34.0646 42.2039 34.0646 42.5803V48.2578H31.2259Z" fill="url(#paint3_linear_494_3788)"/>
<path d="M48.2581 38.3223H39.742C39.3656 38.3223 39.0045 38.4718 38.7384 38.738C38.4722 39.0042 38.3226 39.3652 38.3226 39.7416C38.3226 40.1181 38.4722 40.4791 38.7384 40.7453C39.0045 41.0114 39.3656 41.161 39.742 41.161H42.5807V53.9352C42.5807 54.3116 42.7302 54.6727 42.9964 54.9389C43.2626 55.205 43.6236 55.3546 44.0001 55.3546C44.3765 55.3546 44.7375 55.205 45.0037 54.9389C45.2699 54.6727 45.4194 54.3116 45.4194 53.9352V41.161H48.2581C48.6346 41.161 48.9956 41.0114 49.2618 40.7453C49.528 40.4791 49.6775 40.1181 49.6775 39.7416C49.6775 39.3652 49.528 39.0042 49.2618 38.738C48.9956 38.4718 48.6346 38.3223 48.2581 38.3223Z" fill="url(#paint4_linear_494_3788)"/>
<path d="M58.1938 38.3223C57.8174 38.3223 57.4564 38.4718 57.1902 38.738C56.924 39.0042 56.7745 39.3652 56.7745 39.7416V51.0965C56.7745 51.4729 56.6249 51.834 56.3588 52.1001C56.0926 52.3663 55.7316 52.5159 55.3551 52.5159C54.9787 52.5159 54.6177 52.3663 54.3515 52.1001C54.0853 51.834 53.9358 51.4729 53.9358 51.0965V48.2578C53.9358 47.8813 53.7862 47.5203 53.52 47.2541C53.2539 46.988 52.8928 46.8384 52.5164 46.8384C52.14 46.8384 51.7789 46.988 51.5128 47.2541C51.2466 47.5203 51.097 47.8813 51.097 48.2578V51.0965C51.097 52.2258 51.5457 53.3089 52.3442 54.1074C53.1428 54.906 54.2258 55.3546 55.3551 55.3546C56.4844 55.3546 57.5675 54.906 58.366 54.1074C59.1646 53.3089 59.6132 52.2258 59.6132 51.0965V39.7416C59.6132 39.3652 59.4637 39.0042 59.1975 38.738C58.9313 38.4718 58.5703 38.3223 58.1938 38.3223Z" fill="url(#paint5_linear_494_3788)"/>
<path d="M52.5164 43.9997C52.8928 43.9997 53.2539 43.8502 53.52 43.584C53.7862 43.3178 53.9358 42.9568 53.9358 42.5803V39.7416C53.9358 39.3652 53.7862 39.0042 53.52 38.738C53.2539 38.4718 52.8928 38.3223 52.5164 38.3223C52.14 38.3223 51.7789 38.4718 51.5128 38.738C51.2466 39.0042 51.097 39.3652 51.097 39.7416V42.5803C51.097 42.9568 51.2466 43.3178 51.5128 43.584C51.7789 43.8502 52.14 43.9997 52.5164 43.9997Z" fill="url(#paint6_linear_494_3788)"/>
<path d="M68.7788 47.4062C69.6606 46.8115 70.3283 45.9493 70.6834 44.9467C71.0385 43.944 71.0624 42.8538 70.7514 41.8366C70.4404 40.8194 69.811 39.9289 68.956 39.2963C68.1009 38.6636 67.0653 38.3222 66.0016 38.3223H63.8711C63.4947 38.3223 63.1337 38.4718 62.8675 38.738C62.6013 39.0042 62.4518 39.3652 62.4518 39.7416V53.9352C62.4518 54.3116 62.6013 54.6727 62.8675 54.9389C63.1337 55.205 63.4947 55.3546 63.8711 55.3546C64.2476 55.3546 64.6086 55.205 64.8748 54.9389C65.141 54.6727 65.2905 54.3116 65.2905 53.9352V48.5159C66.1229 48.8019 66.8446 49.3418 67.3539 50.0597C67.8632 50.7775 68.1344 51.6371 68.1292 52.5173V53.9338C68.1292 54.3102 68.2788 54.6713 68.5449 54.9374C68.8111 55.2036 69.1721 55.3532 69.5486 55.3532C69.925 55.3532 70.286 55.2036 70.5522 54.9374C70.8184 54.6713 70.9679 54.3102 70.9679 53.9338V52.5173C70.9711 51.5848 70.789 50.661 70.4324 49.7994C70.0757 48.9378 69.5515 48.1556 68.8902 47.4982C68.8566 47.4636 68.8137 47.4404 68.7788 47.4062ZM65.2905 41.161H66.0016C66.5663 41.161 67.1078 41.3853 67.5071 41.7846C67.9063 42.1838 68.1306 42.7254 68.1306 43.29C68.1306 43.8547 67.9063 44.3962 67.5071 44.7955C67.1078 45.1948 66.5663 45.4191 66.0016 45.4191H65.2905V41.161Z" fill="url(#paint7_linear_494_3788)"/>
<path d="M31.2259 58.1934H29.8066C29.4301 58.1934 29.0691 58.3429 28.8029 58.6091C28.5367 58.8753 28.3872 59.2363 28.3872 59.6127V63.8708C28.3872 64.2472 28.5367 64.6083 28.8029 64.8744C29.0691 65.1406 29.4301 65.2902 29.8066 65.2902C30.183 65.2902 30.544 65.1406 30.8102 64.8744C31.0764 64.6083 31.2259 64.2472 31.2259 63.8708V61.0321C31.9785 61.0331 32.7 61.3325 33.2321 61.8646C33.7643 62.3968 34.0637 63.1182 34.0646 63.8708V69.5482C34.0637 70.3008 33.7643 71.0223 33.2321 71.5544C32.7 72.0866 31.9785 72.386 31.2259 72.3869V69.5482C31.2259 69.1718 31.0764 68.8108 30.8102 68.5446C30.544 68.2784 30.183 68.1289 29.8066 68.1289C29.4301 68.1289 29.0691 68.2784 28.8029 68.5446C28.5367 68.8108 28.3872 69.1718 28.3872 69.5482V73.8063C28.3872 74.1827 28.5367 74.5438 28.8029 74.8099C29.0691 75.0761 29.4301 75.2257 29.8066 75.2257H31.2259C32.7312 75.2242 34.1744 74.6255 35.2388 73.5611C36.3032 72.4967 36.9019 71.0535 36.9034 69.5482V63.8708C36.9019 62.3655 36.3032 60.9223 35.2388 59.8579C34.1744 58.7935 32.7312 58.1949 31.2259 58.1934Z" fill="url(#paint8_linear_494_3788)"/>
<path d="M44 58.1934C42.8711 58.1946 41.7888 58.6437 40.9905 59.4419C40.1922 60.2402 39.7432 61.3225 39.7419 62.4514V73.8063C39.7419 74.1827 39.8915 74.5438 40.1577 74.8099C40.4238 75.0761 40.7849 75.2257 41.1613 75.2257C41.5377 75.2257 41.8988 75.0761 42.1649 74.8099C42.4311 74.5438 42.5807 74.1827 42.5807 73.8063V70.9676H45.4194V73.8063C45.4194 74.1827 45.5689 74.5438 45.8351 74.8099C46.1013 75.0761 46.4623 75.2257 46.8387 75.2257C47.2152 75.2257 47.5762 75.0761 47.8424 74.8099C48.1086 74.5438 48.2581 74.1827 48.2581 73.8063V62.4514C48.2568 61.3225 47.8078 60.2402 47.0095 59.4419C46.2113 58.6437 45.1289 58.1946 44 58.1934ZM42.5807 68.1289V62.4514C42.5807 62.075 42.7302 61.714 42.9964 61.4478C43.2626 61.1816 43.6236 61.0321 44 61.0321C44.3765 61.0321 44.7375 61.1816 45.0037 61.4478C45.2698 61.714 45.4194 62.075 45.4194 62.4514V68.1289H42.5807Z" fill="url(#paint9_linear_494_3788)"/>
<path d="M58.1938 58.1934C57.8174 58.1934 57.4564 58.3429 57.1902 58.6091C56.924 58.8753 56.7745 59.2363 56.7745 59.6127V63.8708C56.7745 64.2472 56.6249 64.6083 56.3588 64.8744C56.0926 65.1406 55.7316 65.2902 55.3551 65.2902C54.9787 65.2902 54.6177 65.1406 54.3515 64.8744C54.0853 64.6083 53.9358 64.2472 53.9358 63.8708V59.6127C53.9358 59.2363 53.7862 58.8753 53.52 58.6091C53.2539 58.3429 52.8928 58.1934 52.5164 58.1934C52.14 58.1934 51.7789 58.3429 51.5128 58.6091C51.2466 58.8753 51.097 59.2363 51.097 59.6127V63.8708C51.0997 64.7485 51.374 65.6038 51.8823 66.3194C52.3906 67.0349 53.1079 67.5756 53.9358 67.8672V73.8063C53.9358 74.1827 54.0853 74.5438 54.3515 74.8099C54.6177 75.0761 54.9787 75.2257 55.3551 75.2257C55.7316 75.2257 56.0926 75.0761 56.3588 74.8099C56.6249 74.5438 56.7745 74.1827 56.7745 73.8063V67.8674C57.6024 67.5758 58.3197 67.0351 58.8279 66.3195C59.3362 65.6039 59.6105 64.7485 59.6132 63.8708V59.6127C59.6132 59.2363 59.4637 58.8753 59.1975 58.6091C58.9313 58.3429 58.5703 58.1934 58.1938 58.1934Z" fill="url(#paint10_linear_494_3788)"/>
<defs>
<linearGradient id="paint0_linear_494_3788" x1="84.4517" y1="31.2256" x2="84.4517" y2="34.0643" gradientUnits="userSpaceOnUse">
<stop stop-color="#88CEF0"/>
<stop offset="1" stop-color="#59A0D1"/>
</linearGradient>
<linearGradient id="paint1_linear_494_3788" x1="44.0001" y1="0" x2="44.0001" y2="88" gradientUnits="userSpaceOnUse">
<stop stop-color="#88CEF0"/>
<stop offset="1" stop-color="#59A0D1"/>
</linearGradient>
<linearGradient id="paint2_linear_494_3788" x1="21.2904" y1="38.3223" x2="21.2904" y2="55.3546" gradientUnits="userSpaceOnUse">
<stop stop-color="#88CEF0"/>
<stop offset="1" stop-color="#59A0D1"/>
</linearGradient>
<linearGradient id="paint3_linear_494_3788" x1="32.6453" y1="38.3223" x2="32.6453" y2="55.3546" gradientUnits="userSpaceOnUse">
<stop stop-color="#88CEF0"/>
<stop offset="1" stop-color="#59A0D1"/>
</linearGradient>
<linearGradient id="paint4_linear_494_3788" x1="44.0001" y1="38.3223" x2="44.0001" y2="55.3546" gradientUnits="userSpaceOnUse">
<stop stop-color="#88CEF0"/>
<stop offset="1" stop-color="#59A0D1"/>
</linearGradient>
<linearGradient id="paint5_linear_494_3788" x1="55.3551" y1="38.3223" x2="55.3551" y2="55.3546" gradientUnits="userSpaceOnUse">
<stop stop-color="#88CEF0"/>
<stop offset="1" stop-color="#59A0D1"/>
</linearGradient>
<linearGradient id="paint6_linear_494_3788" x1="52.5164" y1="38.3223" x2="52.5164" y2="43.9997" gradientUnits="userSpaceOnUse">
<stop stop-color="#88CEF0"/>
<stop offset="1" stop-color="#59A0D1"/>
</linearGradient>
<linearGradient id="paint7_linear_494_3788" x1="66.7101" y1="38.3223" x2="66.7101" y2="55.3546" gradientUnits="userSpaceOnUse">
<stop stop-color="#88CEF0"/>
<stop offset="1" stop-color="#59A0D1"/>
</linearGradient>
<linearGradient id="paint8_linear_494_3788" x1="32.6453" y1="58.1934" x2="32.6453" y2="75.2257" gradientUnits="userSpaceOnUse">
<stop stop-color="#88CEF0"/>
<stop offset="1" stop-color="#59A0D1"/>
</linearGradient>
<linearGradient id="paint9_linear_494_3788" x1="44" y1="58.1934" x2="44" y2="75.2257" gradientUnits="userSpaceOnUse">
<stop stop-color="#88CEF0"/>
<stop offset="1" stop-color="#59A0D1"/>
</linearGradient>
<linearGradient id="paint10_linear_494_3788" x1="55.3551" y1="58.1934" x2="55.3551" y2="75.2257" gradientUnits="userSpaceOnUse">
<stop stop-color="#88CEF0"/>
<stop offset="1" stop-color="#59A0D1"/>
</linearGradient>
</defs>
</svg>
