<svg width="12" height="12" viewBox="0 0 12 12" fill="none" xmlns="http://www.w3.org/2000/svg">
<path d="M8.7583 12C8.32205 12 7.92105 11.7621 7.71185 11.379L6.68317 9.49283C6.54666 9.24271 6.28482 9.08734 6 9.08734C5.71509 9.08734 5.45334 9.24271 5.31674 9.49292L4.28824 11.3789C4.07922 11.762 3.67822 12 3.2417 12C2.71033 12 2.24579 11.6596 2.08575 11.153L0.46994 6.03598C0.158112 5.04831 0 4.02264 0 2.98773C0 1.34024 1.34006 0 2.98709 0C4.46567 0 4.88461 0.559937 6 0.559937C7.11557 0.559937 7.53461 0 9.01245 0C10.6599 0 12 1.34024 12 2.98773C12 4.02264 11.8419 5.04831 11.5302 6.03598L9.91434 11.153C9.75421 11.6596 9.28967 12 8.7583 12Z" fill="white"/>
</svg>
