<svg width="68" height="88" viewBox="0 0 68 88" fill="none" xmlns="http://www.w3.org/2000/svg">
<path d="M58.651 0H8.89572C3.99059 0 0 3.98784 0 8.88953V79.1105C0 84.012 3.99059 87.9998 8.89572 87.9998H30.6332C31.3451 87.9998 31.9223 87.4229 31.9223 86.7108C31.9223 85.9987 31.3451 85.4217 30.6332 85.4217H8.89572C5.41216 85.4217 2.57812 82.5904 2.57812 79.1103V8.88953C2.57812 5.40941 5.41216 2.57812 8.89572 2.57812H58.651C62.1346 2.57812 64.9686 5.40941 64.9686 8.88953V79.1105C64.9686 82.5906 62.1346 85.4219 58.651 85.4219H36.8453C36.1334 85.4219 35.5562 85.9989 35.5562 86.7109C35.5562 87.423 36.1334 88 36.8453 88H58.651C63.5562 88 67.5467 84.0122 67.5467 79.1105V8.88953C67.5467 3.98784 63.5562 0 58.651 0V0Z" fill="url(#paint0_linear_494_3778)"/>
<path d="M29.029 33.1699H34.6364C36.4039 33.1699 37.9563 32.5111 39.2485 31.2141C40.5475 29.9159 41.2063 28.3455 41.2063 26.5458C41.2063 24.6942 40.5862 23.0904 39.3629 21.7789C38.1144 20.44 36.5421 19.7612 34.69 19.7612H29.0288C28.3169 19.7612 27.7397 20.3382 27.7397 21.0503V31.881C27.7399 32.5929 28.3171 33.1699 29.029 33.1699ZM30.318 22.3394H34.6902C35.8142 22.3394 36.7259 22.7312 37.4776 23.5373C38.2518 24.3675 38.6282 25.3516 38.6282 26.546C38.6282 27.652 38.2349 28.5825 37.4242 29.3927C36.6203 30.1997 35.7085 30.5921 34.6366 30.5921H30.3182V22.3394H30.318Z" fill="url(#paint1_linear_494_3778)"/>
<path d="M24.6161 54.1681C26.1642 54.1681 27.5158 53.602 28.6333 52.4853C29.7512 51.3683 30.318 50.0189 30.318 48.4748V40.8919H35.6702C40.0346 40.8919 43.6014 39.5499 46.2713 36.9033C48.9446 34.2535 50.3002 30.7507 50.3002 26.4922C50.3002 22.1905 48.8652 18.638 46.0368 15.9348C43.2277 13.2396 39.5578 11.873 35.129 11.873H24.782C23.1629 11.873 21.7654 12.4492 20.6283 13.5853C19.4942 14.7186 18.9193 16.1316 18.9193 17.7857V29.3472C18.9193 30.0593 19.4965 30.6363 20.2084 30.6363C20.9203 30.6363 21.4974 30.0593 21.4974 29.3472V17.7857C21.4974 16.8273 21.8092 16.0498 22.4506 15.409C23.1046 14.7554 23.8456 14.4512 24.7821 14.4512H35.1292C38.9228 14.4512 41.907 15.545 44.254 17.7969C46.5879 20.0275 47.7222 22.8715 47.7222 26.4922C47.7222 30.0876 46.654 32.8942 44.4566 35.0723C42.2561 37.2534 39.3822 38.3137 35.6704 38.3137H29.0292C28.3172 38.3137 27.7401 38.8907 27.7401 39.6028V48.4748C27.7401 49.3218 27.4362 50.037 26.8113 50.6616C26.1774 51.2951 25.4799 51.59 24.6163 51.59C23.7643 51.59 23.0489 51.2872 22.4238 50.659C21.8004 50.0395 21.4974 49.2884 21.4974 48.3629V35.3009C21.4974 34.5889 20.9203 34.0119 20.2084 34.0119C19.4965 34.0119 18.9193 34.5889 18.9193 35.3009V48.3629C18.9193 49.9875 19.487 51.3753 20.6014 52.4827C21.7143 53.6011 23.0651 54.1681 24.6161 54.1681Z" fill="url(#paint2_linear_494_3778)"/>
<path d="M54.3552 64.6284C55.0671 64.6284 55.6442 64.0514 55.6442 63.3394C55.6442 62.6273 55.0671 62.0503 54.3552 62.0503H49.8204C49.1085 62.0503 48.5314 62.6273 48.5314 63.3394V73.405C48.5314 74.1171 49.1085 74.6941 49.8204 74.6941H54.3552C55.0671 74.6941 55.6442 74.1171 55.6442 73.405C55.6442 72.6929 55.0671 72.116 54.3552 72.116H51.1095V69.4177H53.7067C54.4186 69.4177 54.9958 68.8407 54.9958 68.1286C54.9958 67.4166 54.4186 66.8396 53.7067 66.8396H51.1095V64.6284H54.3552Z" fill="url(#paint3_linear_494_3778)"/>
<path d="M42.8038 64.6284C43.5157 64.6284 44.0929 64.0514 44.0929 63.3394C44.0929 62.6273 43.5157 62.0503 42.8038 62.0503H38.2691C37.5572 62.0503 36.98 62.6273 36.98 63.3394V73.405C36.98 74.1171 37.5572 74.6941 38.2691 74.6941H42.8038C43.5157 74.6941 44.0929 74.1171 44.0929 73.405C44.0929 72.6929 43.5157 72.116 42.8038 72.116H39.5582V69.4125H42.1552C42.8671 69.4125 43.4442 68.8356 43.4442 68.1235C43.4442 67.4114 42.8671 66.8344 42.1552 66.8344H39.5582V64.6282H42.8038V64.6284Z" fill="url(#paint4_linear_494_3778)"/>
<path d="M32.1904 66.2188C32.1904 63.9203 30.3194 62.0503 28.0195 62.0503H24.7965C24.0846 62.0503 23.5074 62.6273 23.5074 63.3394V69.0982V73.4052C23.5074 74.1173 24.0846 74.6943 24.7965 74.6943C25.5084 74.6943 26.0856 74.1173 26.0856 73.4052V70.3872H27.294L29.5311 74.0738C29.7737 74.4734 30.1987 74.6943 30.6344 74.6943C30.8621 74.6943 31.093 74.6338 31.302 74.5071C31.9106 74.1377 32.1044 73.3449 31.7353 72.7363L30.0045 69.884C31.3052 69.1778 32.1904 67.7997 32.1904 66.2188ZM26.0856 64.6284H28.0195C28.8978 64.6284 29.6123 65.3417 29.6123 66.2188C29.6123 67.0958 28.8978 67.8091 28.0195 67.8091H26.0856V64.6284Z" fill="url(#paint5_linear_494_3778)"/>
<path d="M17.858 64.6284C18.5699 64.6284 19.147 64.0514 19.147 63.3394C19.147 62.6273 18.5699 62.0503 17.858 62.0503H13.3232C12.6113 62.0503 12.0342 62.6273 12.0342 63.3394V73.405C12.0342 74.1171 12.6113 74.6941 13.3232 74.6941C14.0351 74.6941 14.6123 74.1171 14.6123 73.405V69.4177H17.2143C17.9262 69.4177 18.5034 68.8407 18.5034 68.1286C18.5034 67.4166 17.9262 66.8396 17.2143 66.8396H14.6123V64.6284H17.858Z" fill="url(#paint6_linear_494_3778)"/>
<path d="M8.52826 9.75683V11.1064C8.52826 11.8185 9.10541 12.3955 9.81732 12.3955C10.5292 12.3955 11.1064 11.8185 11.1064 11.1064V9.75683C11.1064 9.04476 10.5292 8.46777 9.81732 8.46777C9.10541 8.46777 8.52826 9.04476 8.52826 9.75683Z" fill="url(#paint7_linear_494_3778)"/>
<path d="M59.8865 11.1064V9.75683C59.8865 9.04476 59.3093 8.46777 58.5974 8.46777C57.8855 8.46777 57.3083 9.04476 57.3083 9.75683V11.1064C57.3083 11.8185 57.8855 12.3955 58.5974 12.3955C59.3093 12.3955 59.8865 11.8185 59.8865 11.1064Z" fill="url(#paint8_linear_494_3778)"/>
<defs>
<linearGradient id="paint0_linear_494_3778" x1="33.7734" y1="0" x2="33.7734" y2="88" gradientUnits="userSpaceOnUse">
<stop stop-color="#623A95" stop-opacity="0.6"/>
<stop offset="1" stop-color="#623A95"/>
</linearGradient>
<linearGradient id="paint1_linear_494_3778" x1="34.473" y1="19.7612" x2="34.473" y2="33.1699" gradientUnits="userSpaceOnUse">
<stop stop-color="#623A95" stop-opacity="0.6"/>
<stop offset="1" stop-color="#623A95"/>
</linearGradient>
<linearGradient id="paint2_linear_494_3778" x1="34.6098" y1="11.873" x2="34.6098" y2="54.1681" gradientUnits="userSpaceOnUse">
<stop stop-color="#623A95" stop-opacity="0.6"/>
<stop offset="1" stop-color="#623A95"/>
</linearGradient>
<linearGradient id="paint3_linear_494_3778" x1="52.0878" y1="62.0503" x2="52.0878" y2="74.6941" gradientUnits="userSpaceOnUse">
<stop stop-color="#623A95" stop-opacity="0.6"/>
<stop offset="1" stop-color="#623A95"/>
</linearGradient>
<linearGradient id="paint4_linear_494_3778" x1="40.5365" y1="62.0503" x2="40.5365" y2="74.6941" gradientUnits="userSpaceOnUse">
<stop stop-color="#623A95" stop-opacity="0.6"/>
<stop offset="1" stop-color="#623A95"/>
</linearGradient>
<linearGradient id="paint5_linear_494_3778" x1="27.8489" y1="62.0503" x2="27.8489" y2="74.6943" gradientUnits="userSpaceOnUse">
<stop stop-color="#623A95" stop-opacity="0.6"/>
<stop offset="1" stop-color="#623A95"/>
</linearGradient>
<linearGradient id="paint6_linear_494_3778" x1="15.5906" y1="62.0503" x2="15.5906" y2="74.6941" gradientUnits="userSpaceOnUse">
<stop stop-color="#623A95" stop-opacity="0.6"/>
<stop offset="1" stop-color="#623A95"/>
</linearGradient>
<linearGradient id="paint7_linear_494_3778" x1="9.81732" y1="8.46777" x2="9.81732" y2="12.3955" gradientUnits="userSpaceOnUse">
<stop stop-color="#623A95" stop-opacity="0.6"/>
<stop offset="1" stop-color="#623A95"/>
</linearGradient>
<linearGradient id="paint8_linear_494_3778" x1="58.5974" y1="8.46777" x2="58.5974" y2="12.3955" gradientUnits="userSpaceOnUse">
<stop stop-color="#623A95" stop-opacity="0.6"/>
<stop offset="1" stop-color="#623A95"/>
</linearGradient>
</defs>
</svg>
