<svg width="88" height="88" viewBox="0 0 88 88" fill="none" xmlns="http://www.w3.org/2000/svg">
<path d="M54.7716 23.4167L54.8392 23.2176L54.7134 23.049L47.9773 14.0218L47.9772 14.0218C47.4814 13.3575 47.4057 12.4692 47.7821 11.7305C48.158 10.9931 48.9242 10.5334 49.7513 10.5413C49.7515 10.5413 49.7517 10.5413 49.7519 10.5413L61.013 10.6854L61.2233 10.6881L61.3447 10.5164L67.8479 1.32036C68.2599 0.737736 68.9262 0.399887 69.6259 0.399887C69.7389 0.399887 69.853 0.40873 69.9673 0.426777C70.7862 0.556496 71.4603 1.13976 71.7064 1.93155L75.0497 12.687L75.1122 12.8878L75.313 12.9502L86.0683 16.2935C86.0684 16.2935 86.0684 16.2935 86.0684 16.2935C86.8602 16.5398 87.4434 17.2139 87.5732 18.0329C87.703 18.8518 87.3564 19.6732 86.6796 20.152C86.6796 20.152 86.6796 20.1521 86.6796 20.1521L77.4836 26.6554L77.3119 26.7769L77.3146 26.9871L77.4586 38.2494L77.4586 38.2495C77.4694 39.0784 77.0084 39.8414 76.2695 40.218L76.2694 40.2181C75.531 40.5945 74.6423 40.5187 73.9782 40.0229L73.9781 40.0228L64.9511 33.2867L64.7825 33.1609L64.5834 33.2285L53.9169 36.8456C53.1316 37.1118 52.2633 36.9093 51.6772 36.323L51.6771 36.323C51.0909 35.7368 50.8882 34.8684 51.1545 34.0833L50.7757 33.9548L51.1545 34.0833L54.7716 23.4167ZM62.314 15.0587L62.3126 15.0587L54.9185 14.9643L54.1082 14.954L54.5929 15.6035L59.0154 21.53L59.0154 21.5301C59.4443 22.1044 59.5628 22.853 59.3325 23.5321L59.3325 23.5321L56.9579 30.535L56.6976 31.3025L57.4652 31.0422L64.468 28.6676C64.468 28.6676 64.468 28.6676 64.468 28.6676C65.1471 28.4374 65.8956 28.556 66.4702 28.9847L66.7094 28.6642L66.4702 28.9847L72.3966 33.4073L73.0461 33.892L73.0358 33.0816L72.9412 25.6874C72.9412 25.6874 72.9412 25.6874 72.9412 25.6873C72.9323 24.9706 73.2764 24.2952 73.8616 23.8812L79.899 19.6115L80.5608 19.1436L79.7868 18.903L72.7255 16.708C72.7255 16.708 72.7255 16.708 72.7255 16.708C72.0408 16.4951 71.5049 15.9591 71.292 15.2744C71.292 15.2744 71.292 15.2744 71.292 15.2744L69.097 8.21313L68.8564 7.43919L68.3884 8.10091L64.1187 14.1384L64.1187 14.1384C63.7041 14.7247 63.0309 15.0704 62.314 15.0587Z" fill="url(#paint0_linear_494_3762)" stroke="white" stroke-width="0.8"/>
<path d="M7.35127 66.0646L7.35117 66.0645C6.50059 65.2141 6.50055 63.8349 7.35134 62.9843L7.35137 62.9843L19.5048 50.831L19.5049 50.8309C19.9301 50.4056 20.487 50.1929 21.0449 50.1929C21.6028 50.1929 22.1595 50.4054 22.5849 50.8309L22.5849 50.831C23.4356 51.6816 23.4356 53.0608 22.585 53.9113L22.585 53.9113L10.4315 66.0645C10.4315 66.0645 10.4315 66.0645 10.4315 66.0646C9.58057 66.9151 8.20142 66.9152 7.35127 66.0646Z" fill="url(#paint1_linear_494_3762)" stroke="white" stroke-width="0.8"/>
<path d="M26.7968 46.6194L26.7967 46.6194C25.9459 45.7687 25.946 44.3896 26.7969 43.5392L26.7969 43.5391L42.684 27.652L42.6841 27.6519C43.1093 27.2266 43.6662 27.0139 44.2241 27.0139C44.7819 27.0139 45.3387 27.2266 45.7641 27.652C46.6148 28.5026 46.6148 29.8818 45.7642 30.7323L45.7641 30.7323L29.8771 46.6194C29.8771 46.6194 29.8771 46.6194 29.8771 46.6194C29.0264 47.4699 27.6472 47.4698 26.7968 46.6194Z" fill="url(#paint2_linear_494_3762)" stroke="white" stroke-width="0.8"/>
<path d="M60.3469 45.3175L60.3469 45.3175L54.1837 51.4806C54.1837 51.4806 54.1837 51.4806 54.1836 51.4806C53.3328 52.3313 51.9536 52.3311 51.1036 51.4807L51.1035 51.4806C50.2529 50.6298 50.2529 49.2507 51.1035 48.4003L51.1035 48.4003L57.2668 42.2372L57.2668 42.2371C57.692 41.8118 58.2489 41.5991 58.8068 41.5991C59.3648 41.5991 59.9215 41.8116 60.3469 42.2371L60.3469 42.2372C61.1976 43.088 61.1975 44.467 60.3469 45.3175Z" fill="url(#paint3_linear_494_3762)" stroke="white" stroke-width="0.8"/>
<path d="M43.2459 47.8346L43.2458 47.8346L23.8004 67.28C22.95 68.1305 21.5708 68.1305 20.7203 67.28C19.8696 66.4294 19.8697 65.0502 20.7203 64.1997L20.7203 64.1997L40.1657 44.7543L40.1658 44.7543C40.591 44.3289 41.1479 44.1162 41.7058 44.1162C42.2636 44.1162 42.8204 44.3289 43.2458 44.7543C44.0965 45.6049 44.0965 46.9841 43.2459 47.8346Z" fill="url(#paint4_linear_494_3762)" stroke="white" stroke-width="0.8"/>
<path d="M1.03814 86.9622L1.03809 86.9621C0.187361 86.1117 0.187326 84.7325 1.03811 83.8819L1.03814 83.8819L13.4279 71.4921L13.428 71.492C13.8532 71.0667 14.4101 70.854 14.968 70.854C15.5258 70.854 16.0826 71.0666 16.508 71.4921C17.3587 72.3427 17.3587 73.7219 16.5081 74.5723L16.508 74.5724L4.11846 86.9621C3.26781 87.8126 1.88859 87.8126 1.03814 86.9622Z" fill="url(#paint5_linear_494_3762)" stroke="white" stroke-width="0.8"/>
<path d="M43.8115 55.6923L43.8116 55.6923C44.2368 55.2669 44.7935 55.0542 45.3516 55.0542C45.9096 55.0542 46.4664 55.2669 46.8918 55.6923C47.7425 56.5429 47.7424 57.9221 46.8919 58.7726L46.8918 58.7726L25.0158 80.6487C25.0158 80.6487 25.0158 80.6487 25.0158 80.6487C24.1651 81.4992 22.7859 81.4991 21.9355 80.6487C21.0848 79.798 21.0848 78.4188 21.9354 77.5684L21.9355 77.5684L43.8115 55.6923Z" fill="url(#paint6_linear_494_3762)" stroke="white" stroke-width="0.8"/>
<path d="M26.5251 24.0625V23.6625H26.1251H23.547C22.3441 23.6625 21.3689 22.6873 21.3689 21.4844C21.3689 20.2815 22.3441 19.3062 23.547 19.3062H26.1251H26.5251V18.9062V16.3281C26.5251 15.1252 27.5003 14.15 28.7032 14.15C29.9061 14.15 30.8814 15.1252 30.8814 16.3281V18.9062V19.3062H31.2814H33.8595C35.0624 19.3062 36.0376 20.2815 36.0376 21.4844C36.0376 22.6873 35.0624 23.6625 33.8595 23.6625H31.2814H30.8814V24.0625V26.6406C30.8814 27.8435 29.9061 28.8187 28.7032 28.8187C27.5003 28.8187 26.5251 27.8435 26.5251 26.6406V24.0625Z" fill="url(#paint7_linear_494_3762)" stroke="white" stroke-width="0.8"/>
<path d="M82.4439 77.6875V78.0875H82.8439H85.422C86.6249 78.0875 87.6001 79.0627 87.6001 80.2656C87.6001 81.4685 86.6249 82.4437 85.422 82.4437H82.8439H82.4439V82.8438V85.4219C82.4439 86.6248 81.4686 87.6 80.2657 87.6C79.0628 87.6 78.0876 86.6248 78.0876 85.4219V82.8438V82.4437H77.6876H75.1095C73.9066 82.4437 72.9314 81.4685 72.9314 80.2656C72.9314 79.0627 73.9066 78.0875 75.1095 78.0875H77.6876H78.0876V77.6875V75.1094C78.0876 73.9065 79.0628 72.9312 80.2657 72.9312C81.4686 72.9312 82.4439 73.9065 82.4439 75.1094V77.6875Z" fill="url(#paint8_linear_494_3762)" stroke="white" stroke-width="0.8"/>
<path d="M60.1001 67.0312V67.4312H60.5001H63.0782C64.2811 67.4312 65.2564 68.4065 65.2564 69.6094C65.2564 70.8123 64.2811 71.7875 63.0782 71.7875H60.5001H60.1001V72.1875V74.7656C60.1001 75.9685 59.1249 76.9437 57.922 76.9437C56.7191 76.9437 55.7439 75.9685 55.7439 74.7656V72.1875V71.7875H55.3439H52.7657C51.5628 71.7875 50.5876 70.8123 50.5876 69.6094C50.5876 68.4065 51.5628 67.4312 52.7657 67.4312H55.3439H55.7439V67.0312V64.4531C55.7439 63.2502 56.7191 62.275 57.922 62.275C59.1249 62.275 60.1001 63.2502 60.1001 64.4531V67.0312Z" fill="url(#paint9_linear_494_3762)" stroke="white" stroke-width="0.8"/>
<path d="M39.4157 82.5C39.4157 81.2971 40.3909 80.3219 41.5939 80.3219C42.7968 80.3219 43.772 81.2971 43.772 82.5C43.772 83.7029 42.7968 84.6781 41.5939 84.6781C40.3909 84.6781 39.4157 83.7029 39.4157 82.5Z" fill="url(#paint10_linear_494_3762)" stroke="white" stroke-width="0.8"/>
<path d="M73.7907 56.7188C73.7907 55.5158 74.7659 54.5406 75.9689 54.5406C77.1718 54.5406 78.147 55.5158 78.147 56.7188C78.147 57.9217 77.1718 58.8969 75.9689 58.8969C74.7659 58.8969 73.7907 57.9217 73.7907 56.7188Z" fill="url(#paint11_linear_494_3762)" stroke="white" stroke-width="0.8"/>
<path d="M13.6345 5.15625C13.6345 3.9533 14.6097 2.97813 15.8126 2.97813C17.0156 2.97813 17.9907 3.9533 17.9907 5.15625C17.9907 6.3592 17.0156 7.33437 15.8126 7.33437C14.6097 7.33437 13.6345 6.3592 13.6345 5.15625Z" fill="url(#paint12_linear_494_3762)" stroke="white" stroke-width="0.8"/>
<path d="M3.322 39.5312C3.322 38.3283 4.29718 37.3531 5.50012 37.3531C6.70307 37.3531 7.67825 38.3283 7.67825 39.5312C7.67825 40.7342 6.70307 41.7094 5.50012 41.7094C4.29718 41.7094 3.322 40.7342 3.322 39.5312Z" fill="url(#paint13_linear_494_3762)" stroke="white" stroke-width="0.8"/>
<defs>
<linearGradient id="paint0_linear_494_3762" x1="67.5724" y1="40.8555" x2="67.5724" y2="-0.000114441" gradientUnits="userSpaceOnUse">
<stop stop-color="#623A95" stop-opacity="0.6"/>
<stop offset="1" stop-color="#623A95"/>
</linearGradient>
<linearGradient id="paint1_linear_494_3762" x1="14.9681" y1="67.1025" x2="14.9681" y2="49.7929" gradientUnits="userSpaceOnUse">
<stop stop-color="#623A95" stop-opacity="0.6"/>
<stop offset="1" stop-color="#623A95"/>
</linearGradient>
<linearGradient id="paint2_linear_494_3762" x1="36.2804" y1="47.6572" x2="36.2804" y2="26.6139" gradientUnits="userSpaceOnUse">
<stop stop-color="#623A95" stop-opacity="0.6"/>
<stop offset="1" stop-color="#623A95"/>
</linearGradient>
<linearGradient id="paint3_linear_494_3762" x1="55.7252" y1="52.5186" x2="55.7252" y2="41.1991" gradientUnits="userSpaceOnUse">
<stop stop-color="#623A95" stop-opacity="0.6"/>
<stop offset="1" stop-color="#623A95"/>
</linearGradient>
<linearGradient id="paint4_linear_494_3762" x1="31.9831" y1="68.3179" x2="31.9831" y2="43.7162" gradientUnits="userSpaceOnUse">
<stop stop-color="#623A95" stop-opacity="0.6"/>
<stop offset="1" stop-color="#623A95"/>
</linearGradient>
<linearGradient id="paint5_linear_494_3762" x1="8.77303" y1="88" x2="8.77303" y2="70.454" gradientUnits="userSpaceOnUse">
<stop stop-color="#623A95" stop-opacity="0.6"/>
<stop offset="1" stop-color="#623A95"/>
</linearGradient>
<linearGradient id="paint6_linear_494_3762" x1="34.4136" y1="81.6865" x2="34.4136" y2="54.6542" gradientUnits="userSpaceOnUse">
<stop stop-color="#623A95" stop-opacity="0.6"/>
<stop offset="1" stop-color="#623A95"/>
</linearGradient>
<linearGradient id="paint7_linear_494_3762" x1="28.7032" y1="29.2188" x2="28.7032" y2="13.75" gradientUnits="userSpaceOnUse">
<stop stop-color="#623A95" stop-opacity="0.6"/>
<stop offset="1" stop-color="#623A95"/>
</linearGradient>
<linearGradient id="paint8_linear_494_3762" x1="80.2657" y1="88" x2="80.2657" y2="72.5312" gradientUnits="userSpaceOnUse">
<stop stop-color="#623A95" stop-opacity="0.6"/>
<stop offset="1" stop-color="#623A95"/>
</linearGradient>
<linearGradient id="paint9_linear_494_3762" x1="57.922" y1="77.3438" x2="57.922" y2="61.875" gradientUnits="userSpaceOnUse">
<stop stop-color="#623A95" stop-opacity="0.6"/>
<stop offset="1" stop-color="#623A95"/>
</linearGradient>
<linearGradient id="paint10_linear_494_3762" x1="41.5939" y1="85.0781" x2="41.5939" y2="79.9219" gradientUnits="userSpaceOnUse">
<stop stop-color="#623A95" stop-opacity="0.6"/>
<stop offset="1" stop-color="#623A95"/>
</linearGradient>
<linearGradient id="paint11_linear_494_3762" x1="75.9689" y1="59.2969" x2="75.9689" y2="54.1406" gradientUnits="userSpaceOnUse">
<stop stop-color="#623A95" stop-opacity="0.6"/>
<stop offset="1" stop-color="#623A95"/>
</linearGradient>
<linearGradient id="paint12_linear_494_3762" x1="15.8126" y1="7.73438" x2="15.8126" y2="2.57812" gradientUnits="userSpaceOnUse">
<stop stop-color="#623A95" stop-opacity="0.6"/>
<stop offset="1" stop-color="#623A95"/>
</linearGradient>
<linearGradient id="paint13_linear_494_3762" x1="5.50012" y1="42.1094" x2="5.50012" y2="36.9531" gradientUnits="userSpaceOnUse">
<stop stop-color="#623A95" stop-opacity="0.6"/>
<stop offset="1" stop-color="#623A95"/>
</linearGradient>
</defs>
</svg>
