<svg width="65" height="66" viewBox="0 0 65 66" fill="none" xmlns="http://www.w3.org/2000/svg">
<path fill-rule="evenodd" clip-rule="evenodd" d="M35.4104 1.05589C34.3373 1.29261 33.1721 1.85064 32.1714 2.6072C31.9339 2.78678 31.2703 3.35582 30.6968 3.87173C28.0171 6.28217 26.5934 6.98875 24.3945 6.99967C22.7837 7.00769 21.2471 6.89529 21.2471 6.76943C21.2471 6.55616 22.0068 5.14479 22.3166 4.78237C23.0796 3.89015 24.2506 3.27302 26.6371 2.50529C27.5083 2.225 28.2214 1.97114 28.2218 1.94112C28.2228 1.85508 24.7852 1.75403 23.8336 1.8121C20.7555 2.00004 18.6432 3.35045 17.3015 5.98815C17.0912 6.40181 16.6625 7.51464 16.3491 8.4611C15.4606 11.1442 14.8732 12.2743 13.8338 13.3002C13.5579 13.5726 13.0938 13.9532 12.8024 14.1461C12.1286 14.5921 9.68702 15.8047 9.61276 15.7302C9.58188 15.6993 9.54181 15.1866 9.52361 14.5909C9.49486 13.6486 9.51468 13.4357 9.67596 12.9534C10.0577 11.8119 10.7281 10.852 12.4577 8.97078C12.9408 8.44532 13.3361 7.99908 13.3361 7.97913C13.3361 7.92268 10.5581 9.38709 9.89092 9.79521C7.6646 11.1572 6.55509 12.5316 6.00387 14.6103C5.85747 15.1627 5.82132 15.5424 5.82098 16.5349C5.82047 17.6888 5.84812 17.9025 6.23363 19.7327C6.62221 21.5775 6.64713 21.7726 6.65258 23.0158C6.65947 24.5748 6.53349 25.1939 5.98737 26.2848C5.63928 26.98 4.15404 29.3179 4.05699 29.3233C3.97175 29.328 3.29123 28.3655 3.06428 27.9191C2.39549 26.6038 2.38997 25.3181 3.04012 22.2912C3.22148 21.4472 3.36047 20.7472 3.34916 20.7359C3.29157 20.6781 1.49125 23.621 1.04032 24.51C0.370946 25.8298 0.134379 26.6863 0.0869981 27.9617C0.00235839 30.2389 0.708143 31.7832 3.02957 34.3999C4.83397 36.4339 5.47893 37.4331 5.90256 38.8506C6.09608 39.4983 6.12798 39.7659 6.13462 40.7955C6.13878 41.4521 6.11114 42.4019 6.07311 42.906C6.01672 43.6556 5.97954 43.8227 5.86964 43.8227C5.79563 43.8227 5.40697 43.664 5.00589 43.4701C3.43295 42.7095 2.60705 41.4725 1.6402 38.4291C1.36085 37.5497 1.1105 36.8302 1.08388 36.8302C1.0171 36.8302 0.957894 38.6179 0.96521 40.4117C0.976354 43.1552 1.54289 44.7882 2.99155 46.2528C4.12844 47.4022 5.05727 47.9043 7.72891 48.8136C10.4183 49.729 11.433 50.272 12.4553 51.3429C13.1282 52.0477 13.5251 52.6702 14.277 54.1999C14.7446 55.1515 14.8606 55.4567 14.7748 55.5099C14.5597 55.6431 13.3826 55.7004 12.7833 55.6068C11.4162 55.3935 10.4558 54.8048 8.32283 52.8732C7.69522 52.3048 7.17037 51.8512 7.1565 51.865C7.14272 51.8789 7.47201 52.5503 7.88832 53.357C9.51561 56.5104 10.683 57.862 12.499 58.695C13.5999 59.2 14.1415 59.3007 15.7179 59.2936C17.0119 59.2877 17.231 59.2627 18.525 58.9729C21.9173 58.2134 23.4558 58.2465 25.2838 59.1183C26.1908 59.5509 28.4186 61.0222 28.3457 61.1404C28.3179 61.1855 28.0954 61.3703 27.8512 61.5512C26.2205 62.7588 24.7874 62.8713 21.2212 62.0721C20.5919 61.9309 20.0244 61.8161 19.9602 61.8167C19.7236 61.8189 23.0129 63.8712 23.909 64.2805C25.1545 64.8493 26.1515 65.0866 27.2867 65.0846C28.5131 65.0826 29.3644 64.871 30.5617 64.2709C31.4819 63.8098 32.0633 63.3813 33.3689 62.2019C35.4952 60.2813 36.694 59.5302 38.2176 59.1641C38.9197 58.9954 39.1316 58.9844 40.7738 59.03C41.7587 59.0573 42.6433 59.1101 42.7396 59.1471C42.9134 59.2142 42.913 59.2189 42.684 59.7832C41.9597 61.5681 40.7106 62.4724 37.5774 63.4803C36.7598 63.7433 36.0335 63.9821 35.9634 64.0111C35.7109 64.1155 37.8284 64.2098 39.5786 64.1722C41.4992 64.131 41.9127 64.0645 43.088 63.608C44.7158 62.9758 46.1515 61.5399 47.0029 59.6926C47.1666 59.3374 47.5417 58.3148 47.8366 57.42C48.6781 54.866 49.2601 53.7523 50.2852 52.735C50.9695 52.0558 51.5511 51.6787 53.1441 50.8808C54.165 50.3695 54.4747 50.2478 54.5252 50.3381C54.6551 50.5707 54.7007 51.892 54.5993 52.4841C54.3908 53.701 53.686 54.8275 51.8918 56.811C51.3186 57.4446 50.8498 57.981 50.8498 58.0029C50.8498 58.063 53.6118 56.6087 54.2876 56.1929C56.4868 54.8399 57.5605 53.4994 58.1511 51.3695C58.2593 50.9794 58.2917 50.5132 58.2877 49.4082C58.2827 48.0375 58.2632 47.8696 57.9297 46.3292C57.3195 43.5097 57.2857 42.1055 57.7918 40.5856C58.0555 39.7939 58.3082 39.3314 59.3004 37.8248L60.0775 36.645L60.3455 36.965C61.1692 37.9485 61.4944 38.8116 61.5482 40.1566C61.5921 41.2551 61.5216 41.8168 61.0962 43.7541C60.9346 44.4902 60.8024 45.1403 60.8024 45.1986C60.8024 45.3611 62.4429 42.7536 62.9656 41.7605C63.2203 41.2767 63.5053 40.6697 63.5991 40.4117C64.6793 37.4423 64.0155 34.8194 61.4734 32.0122C59.7363 30.0938 58.9799 29.048 58.5085 27.9127C58.0624 26.8387 57.9652 26.1121 58.0242 24.2949C58.0782 22.6361 58.1326 22.163 58.2698 22.163C58.3155 22.163 58.6785 22.3159 59.0763 22.5029C59.656 22.7752 59.9306 22.9741 60.4596 23.5048C61.0133 24.0604 61.1892 24.3111 61.5523 25.0624C61.7903 25.5548 62.2005 26.6293 62.4639 27.45C62.7271 28.2708 62.9664 28.9999 62.9956 29.0703C63.1879 29.5346 63.2431 24.6555 63.0574 23.5887C62.6308 21.1358 61.2498 19.3165 58.9322 18.154C58.5353 17.9549 57.5209 17.5647 56.678 17.287C54.0604 16.4243 52.9817 15.8869 51.9472 14.9301C51.6267 14.6337 51.1698 14.0993 50.9318 13.7426C50.5144 13.1172 49.2004 10.5705 49.2628 10.508C49.3786 10.3919 50.833 10.3074 51.3453 10.3871C52.7379 10.6037 53.7312 11.226 56.0386 13.3277C56.5766 13.8177 57.0257 14.2095 57.0367 14.1985C57.0477 14.1875 56.7085 13.5095 56.2829 12.6919C54.3459 8.97002 52.9366 7.56342 50.467 6.88702C49.9121 6.73506 49.5508 6.70002 48.5105 6.6972C47.3009 6.69396 47.1327 6.71545 45.278 7.10984C43.4342 7.50193 43.2455 7.52624 42.003 7.53161C40.8774 7.53639 40.5875 7.50918 40.0217 7.34529C39.1249 7.08563 38.3595 6.68825 36.9166 5.73326L35.7006 4.92861L36.1085 4.58837C36.7174 4.08048 37.716 3.60874 38.4432 3.48569C39.529 3.30184 40.6302 3.42898 43.5767 4.07835C44.4939 4.28045 44.528 4.31643 42.6963 3.14826C40.7322 1.89567 39.5128 1.31614 38.2987 1.05836C37.5756 0.904781 36.1012 0.903502 35.4104 1.05589ZM36.9703 6.59845C38.7658 8.56675 40.5403 9.75352 42.7686 10.4765C44.6349 11.082 46.1472 11.1733 47.9499 10.7895C48.5305 10.6659 49.0253 10.5844 49.0494 10.6086C49.0733 10.6326 49.2144 11.2564 49.3626 11.9948C49.9955 15.1469 50.9559 17.132 52.8115 19.1238C54.0001 20.3997 55.3266 21.228 57.017 21.75C57.4848 21.8944 57.8943 22.0368 57.9269 22.0665C57.9595 22.0962 57.8703 22.4466 57.7288 22.8452C56.9194 25.1244 56.6083 26.663 56.6083 28.3881C56.6083 30.259 56.9647 31.9301 57.6925 33.473C58.1158 34.37 58.5028 34.9209 59.3644 35.8525L59.9783 36.5162L59.4334 36.99C56.4213 39.6087 55.1166 41.5191 54.3228 44.474C54.0677 45.4236 54.0513 45.5717 54.0549 46.8926C54.0582 48.0922 54.0899 48.4283 54.2703 49.1722L54.4819 50.0448L54.1757 50.0984C50.1912 50.7962 47.8801 51.859 45.757 53.97C44.4268 55.2926 43.8213 56.2919 43.2768 58.0635C43.1255 58.5559 42.9939 58.9684 42.9844 58.9802C42.9749 58.9919 42.53 58.8448 41.9959 58.6532C38.5654 57.4234 36.0155 57.267 33.1126 58.1083C31.5874 58.5503 30.4592 59.2089 29.1759 60.4065L28.5557 60.9853L28.2402 60.6132C25.8117 57.7486 24.1812 56.5127 21.6778 55.6391C19.6896 54.9454 18.1495 54.826 16.2151 55.2158C15.6085 55.3381 15.1006 55.4244 15.0864 55.4077C15.0723 55.391 14.9567 54.8613 14.8295 54.2305C14.1287 50.7538 13.2276 48.885 11.2583 46.8239C9.99912 45.5062 8.70996 44.7163 6.97744 44.2009C6.54471 44.0722 6.19059 43.9248 6.19059 43.8734C6.19059 43.8221 6.32422 43.4054 6.48746 42.9475C7.6657 39.6432 7.85072 36.8908 7.0751 34.2076C6.59694 32.5536 6.03313 31.5435 4.85498 30.2301L4.1742 29.4711L4.77834 28.9587C5.76484 28.1219 7.38881 26.4295 7.90882 25.6963C8.59121 24.7341 9.0999 23.7329 9.49988 22.5648C10.199 20.5233 10.3135 18.9685 9.90589 17.0526C9.78187 16.4697 9.68948 15.9848 9.70054 15.9749C9.71169 15.9652 10.2353 15.8539 10.8643 15.7277C14.2423 15.0499 16.2 14.1143 18.1544 12.2437C19.641 10.8209 20.2184 9.91912 20.8184 8.08308L21.1699 7.00734L22.2345 7.3794C25.6798 8.58321 28.1109 8.73364 30.9328 7.91773C32.6007 7.43542 33.6212 6.84746 34.9851 5.58292L35.5806 5.03077L35.9634 5.47258C36.1739 5.71553 36.627 6.22214 36.9703 6.59845ZM45.0179 19.9765C44.8456 20.0965 44.64 20.4621 44.64 20.6486C44.64 20.7518 44.7391 20.9543 44.8602 21.0986C45.1433 21.4358 45.6183 21.4655 45.9012 21.1636C46.1606 20.8867 46.1546 20.3466 45.8893 20.0967C45.6929 19.9119 45.2071 19.8449 45.0179 19.9765ZM31.4549 23.4502V26.7332H32.1354H32.816V24.9948V23.2564L33.1053 23.1188C33.4857 22.9378 34.0365 22.9394 34.1879 23.1219C34.2748 23.2268 34.3155 23.6999 34.3471 24.9766L34.3897 26.6906L35.0972 26.7155L35.8048 26.7403L35.7778 24.7968C35.7539 23.0858 35.7311 22.8138 35.5874 22.5234C35.4059 22.1569 35.0719 21.9159 34.6302 21.8329C34.2514 21.7616 33.4989 21.9804 33.1708 22.2571C33.0324 22.3739 32.8958 22.4695 32.8675 22.4695C32.8392 22.4695 32.816 21.9515 32.816 21.3183V20.1671H32.1354H31.4549V23.4502ZM14.6634 23.0429C14.2004 24.3456 13.7126 25.7107 13.5794 26.0764L13.3373 26.7413L13.8595 26.716L14.3817 26.6906L14.657 25.9231L14.9324 25.1557L15.8701 25.1316L16.8079 25.1076L17.078 25.9204L17.3481 26.7332H18.1159C18.8701 26.7332 18.8829 26.7298 18.8341 26.5414C18.8068 26.4358 18.3304 25.0832 17.7755 23.5354L16.7666 20.7214L16.1359 20.6979L15.5052 20.6742L14.6634 23.0429ZM29.215 20.911C29.0392 20.9375 28.9423 21.0234 28.8566 21.2291C28.6781 21.6572 28.335 22.0208 28.007 22.1294C27.7468 22.2154 27.7121 22.2614 27.7121 22.5188C27.7121 22.7954 27.7275 22.8106 28.0098 22.8106H28.3075L28.308 24.111C28.3083 24.8262 28.348 25.5542 28.3963 25.7286C28.5009 26.1063 28.8308 26.5209 29.164 26.6937C29.4975 26.8665 30.3217 26.8533 30.6893 26.6691C30.9394 26.5439 30.9913 26.4689 31.0134 26.2003L31.0399 25.8805H30.5292C29.7796 25.8805 29.7536 25.8228 29.7536 24.1599V22.8184L30.3199 22.7932L30.8862 22.768V22.3842V22.0005L30.3199 21.9753L29.7536 21.9501V21.3997C29.7536 20.8039 29.7785 20.8264 29.215 20.911ZM42.4001 20.911C42.2177 20.9385 42.1279 21.0234 42.0306 21.2607C41.8587 21.6799 41.5279 22.0182 41.1761 22.1346C40.9196 22.2195 40.8905 22.2599 40.9136 22.499C40.9364 22.7336 40.975 22.7714 41.2161 22.7947L41.4926 22.8214L41.4946 24.0738C41.4974 25.8195 41.6058 26.1821 42.2573 26.6266C42.6153 26.8709 43.4289 26.8923 43.8744 26.6691C44.1245 26.5439 44.1764 26.4689 44.1985 26.2003L44.225 25.8805L43.7732 25.8792C42.9928 25.8769 42.9387 25.7614 42.9387 24.0992V22.8184L43.5129 22.7932L44.0871 22.768V22.3842V22.0005L43.5129 21.9753L42.9387 21.9501V21.3997C42.9387 20.8039 42.9635 20.8264 42.4001 20.911ZM20.8218 21.8661C20.0358 22.0464 19.4833 22.5272 19.2488 23.2346C18.8012 24.5857 19.2983 25.9854 20.439 26.5865C20.8669 26.8119 22.1775 26.8831 22.8208 26.7159L23.2461 26.6053L23.2716 26.1656L23.297 25.7261L22.9738 25.8012C22.4249 25.9289 21.432 25.8955 21.101 25.7381C20.7728 25.5819 20.4824 25.1788 20.4819 24.8785C20.4815 24.6868 20.4825 24.6866 21.9824 24.6866H23.4832L23.429 24.102C23.296 22.6666 22.6947 21.9331 21.5724 21.8367C21.3233 21.8153 20.9855 21.8285 20.8218 21.8661ZM25.2102 21.8827C24.2086 22.1182 23.671 23.0277 24.0395 23.8631C24.2265 24.2868 24.5197 24.496 25.3811 24.8204C26.2704 25.1551 26.4665 25.4166 26.0865 25.7607C25.7841 26.0346 24.9373 25.9317 23.9479 25.5007C23.8162 25.4434 23.7991 25.4906 23.7991 25.911C23.7991 26.3135 23.8277 26.4015 23.9865 26.4867C24.3422 26.6775 25.0343 26.8165 25.634 26.8175C26.1238 26.8183 26.3204 26.7749 26.693 26.584C27.2142 26.3168 27.4352 26.055 27.5442 25.5755C27.712 24.8382 27.3033 24.2607 26.3793 23.9293C25.2828 23.536 25.0027 23.2464 25.4294 22.9468C25.6485 22.7929 26.4786 22.7614 26.9258 22.8899L27.2017 22.9692V22.5592C27.2017 22.1031 27.1379 22.0519 26.351 21.8767C25.8981 21.7759 25.6591 21.7772 25.2102 21.8827ZM37.8955 21.9036C37.3253 22.0644 36.8994 22.4342 36.6014 23.0275C36.3758 23.4765 36.3467 23.6194 36.3507 24.2603C36.3581 25.4002 36.7614 26.0967 37.6813 26.5576C38.1424 26.7885 38.2862 26.8183 38.933 26.8169C39.3348 26.8159 39.8551 26.7656 40.089 26.7051L40.5143 26.5949L40.5397 26.1632L40.565 25.7313L40.1994 25.8022C39.553 25.9275 38.6697 25.8936 38.3452 25.7311C38.0502 25.5834 37.6179 24.9168 37.7149 24.7594C37.7396 24.7194 38.4038 24.6866 39.1909 24.6866C40.8416 24.6866 40.7447 24.7463 40.631 23.7992C40.5392 23.0345 40.2016 22.4233 39.6972 22.108C39.2368 21.8203 38.4908 21.7356 37.8955 21.9036ZM48.4254 21.8454C47.6427 22.0217 47.1107 22.4343 46.7967 23.1091C46.6374 23.451 46.598 23.6804 46.5974 24.268C46.5966 24.9193 46.6261 25.0599 46.8633 25.5357C47.1392 26.0893 47.5884 26.4962 48.1546 26.7054C48.521 26.8408 49.7733 26.8407 50.2968 26.7051L50.7222 26.5949L50.7476 26.1605L50.773 25.7262L50.4073 25.81C50.2062 25.8561 49.7473 25.8811 49.3876 25.8655C48.8003 25.84 48.7071 25.8117 48.4747 25.5884C48.101 25.2297 47.9289 24.715 47.9739 24.0915C48.0165 23.501 48.1996 23.1903 48.6441 22.9541C48.9339 22.8002 49.479 22.799 50.3181 22.9506L50.5946 23.0005V22.62C50.5946 22.2624 50.5754 22.2311 50.2756 22.0982C49.7261 21.8546 48.8912 21.7405 48.4254 21.8454ZM44.64 24.3456V26.7332H45.3631H46.0861V24.3456V21.9579H45.3631H44.64V24.3456ZM16.1744 23.2583C16.3045 23.6452 16.4304 24.0098 16.4543 24.0684C16.4866 24.1478 16.3417 24.175 15.886 24.175C15.3381 24.175 15.2804 24.1594 15.3321 24.0258C15.3638 23.9437 15.4924 23.5792 15.6177 23.2157C15.743 22.8522 15.8663 22.5549 15.8918 22.5548C15.9172 22.5548 16.0444 22.8714 16.1744 23.2583ZM21.8964 22.9617C22.1182 23.1418 22.2679 23.4223 22.2679 23.6577C22.2679 23.8246 22.2207 23.8339 21.3747 23.8339C20.6248 23.8339 20.4815 23.8127 20.4815 23.7017C20.4815 23.4931 20.7178 23.0894 20.9253 22.9437C21.1752 22.7682 21.6694 22.7774 21.8964 22.9617ZM39.1947 23.0451C39.3359 23.1741 39.4753 23.4044 39.5044 23.5568L39.5574 23.8339H38.6535H37.7497V23.6122C37.7497 23.4737 37.8584 23.2816 38.039 23.1005C38.4153 22.7233 38.821 22.7038 39.1947 23.0451ZM33.178 27.2905C32.8882 27.4126 32.6874 27.827 32.7659 28.1408C32.9713 28.961 34.177 28.828 34.177 27.9851C34.177 27.416 33.6875 27.0757 33.178 27.2905ZM13.6763 31.0036V33.9948L15.2713 33.9669C16.8158 33.9398 16.8815 33.9314 17.3478 33.7018C17.9173 33.4215 18.3838 32.9324 18.6575 32.3289C19.4011 30.6885 18.8771 28.8733 17.4704 28.2166C17.0599 28.025 16.9455 28.014 15.3563 28.0132L13.6763 28.0123V31.0036ZM30.336 28.2895C30.264 28.3482 30.1561 28.5216 30.096 28.6749C29.9712 28.9935 29.5823 29.3523 29.2792 29.4287C29.1118 29.4708 29.0731 29.5347 29.0731 29.7697C29.0731 30.0434 29.0891 30.0589 29.3708 30.0589H29.6686L29.6704 31.4873C29.672 32.693 29.6969 32.9698 29.8298 33.2634C30.13 33.9259 30.7911 34.2358 31.5543 34.0717C32.2156 33.9295 32.3056 33.8559 32.3056 33.4574V33.1098L31.9971 33.1679C31.5762 33.247 31.2325 33.0898 31.1202 32.7669C31.0703 32.6236 31.0296 31.9558 31.0296 31.2827V30.0589H31.625H32.2205V29.6791V29.2992L31.6463 29.2741L31.0721 29.2488L31.0468 28.7159L31.0215 28.1829H30.744C30.5915 28.1829 30.4079 28.2309 30.336 28.2895ZM39.909 28.2481C39.8569 28.2826 39.7335 28.4703 39.6349 28.6651C39.4397 29.0512 39.1114 29.3519 38.7993 29.4305C38.6397 29.4706 38.6004 29.5377 38.6004 29.7697C38.6004 30.0434 38.6164 30.0589 38.8981 30.0589H39.1958L39.1977 31.4873C39.1998 33.0664 39.287 33.4317 39.7492 33.7961C40.2161 34.1643 41.0152 34.2199 41.5989 33.9248C41.796 33.8252 41.8329 33.7524 41.8329 33.4625V33.1183L41.4637 33.1738C41.1471 33.2214 41.0592 33.199 40.847 33.0161L40.5994 32.8027L40.5707 31.4308L40.5419 30.0589H41.1448H41.7478V29.6791V29.2992L41.1736 29.2741L40.5994 29.2488V28.7157V28.1825L40.3017 28.184C40.1379 28.1849 39.9613 28.2137 39.909 28.2481ZM16.3145 29.0438C17.2115 29.2367 17.6997 30.1365 17.5241 31.2734C17.34 32.4661 16.7922 32.9582 15.6485 32.9582H15.0374V31.0023V29.0465L15.3138 29.012C15.8254 28.9484 15.8784 28.9501 16.3145 29.0438ZM44.6186 29.1563C44.443 29.2197 44.1655 29.3738 44.0018 29.499L43.7043 29.7265V29.509C43.7043 29.2939 43.6965 29.2915 43.0238 29.2915H42.3432V31.6365V33.9815H43.0238H43.7043V32.2286V30.4757L44.1078 30.2968C44.4879 30.1283 44.5325 30.1254 44.8768 30.2496L45.2423 30.3813L45.2176 29.7307C45.1899 29.0008 45.1514 28.9639 44.6186 29.1563ZM20.7068 29.2085C20.0256 29.4131 19.5427 29.9783 19.327 30.8233C18.9975 32.1147 19.5156 33.3207 20.6362 33.8708C21.0689 34.0833 21.2041 34.107 21.9276 34.0974C22.398 34.0912 22.878 34.0346 23.076 33.962C23.4004 33.8431 23.4175 33.8187 23.4424 33.4356L23.4685 33.034L22.932 33.1027C21.8478 33.2416 21.2425 33.1314 20.8974 32.7324C20.7346 32.5442 20.5599 32.0554 20.6302 31.9848C20.6576 31.9574 21.3243 31.935 22.112 31.935H23.5439V31.4388C23.5439 30.434 23.1029 29.6017 22.4015 29.2823C22.0313 29.1137 21.1498 29.0754 20.7068 29.2085ZM26.5366 29.2458C26.3814 29.316 26.1458 29.4508 26.0131 29.5456C25.7037 29.7665 25.6705 29.7625 25.6705 29.5046C25.6705 29.295 25.6592 29.2915 24.99 29.2915H24.3095V31.6365V33.9815H24.99H25.6705V32.278V30.5745L25.8843 30.434C26.002 30.3567 26.2655 30.2746 26.4699 30.2516C26.7701 30.2176 26.8761 30.2442 27.0216 30.39C27.193 30.5619 27.2017 30.6529 27.2017 32.2761V33.9815H27.9247H28.6478L28.6473 32.2121C28.647 31.2211 28.6069 30.2985 28.556 30.1149C28.5061 29.9345 28.3389 29.6488 28.1846 29.48C27.9265 29.1977 27.8602 29.1708 27.3614 29.1456C27.0089 29.1279 26.72 29.163 26.5366 29.2458ZM35.7507 29.2826C35.0311 29.6165 34.6721 30.3065 34.8579 30.9982C34.9753 31.4355 35.4087 31.7851 36.1857 32.0692C36.5244 32.193 36.8862 32.3847 36.9898 32.4952C37.1687 32.6861 37.171 32.7067 37.0375 32.9111C36.9602 33.0294 36.794 33.152 36.6683 33.1836C36.3924 33.253 35.5923 33.0973 35.0687 32.8724L34.6874 32.7085V33.164C34.6874 33.4266 34.7325 33.6554 34.7937 33.704C35.0479 33.9058 35.8669 34.0965 36.4738 34.095C37.6452 34.0922 38.3495 33.5591 38.4088 32.6301C38.4616 31.803 38.1487 31.51 36.6224 30.9583C36.1586 30.7906 36.0046 30.4927 36.253 30.2435C36.4065 30.0895 37.2841 30.0451 37.8181 30.1643L38.0992 30.2271L38.0733 29.8252C38.0482 29.4349 38.0364 29.4191 37.6647 29.2768C37.1379 29.075 36.1917 29.0779 35.7507 29.2826ZM45.5757 29.2394C45.5757 29.2613 46.0096 30.2927 46.54 31.5316L47.5044 33.784L46.9273 34.9274C46.6099 35.5562 46.3482 36.0995 46.3457 36.1347C46.3433 36.1699 46.6448 36.1987 47.0157 36.1987H47.6901L47.8607 35.751C47.9546 35.5048 48.5698 33.9652 49.2279 32.3299C49.886 30.6946 50.4244 29.3208 50.4244 29.2771C50.4244 29.2334 50.2073 29.2092 49.9418 29.2232L49.4591 29.2488L48.8624 30.6752C48.5341 31.4597 48.2525 32.0884 48.2364 32.0723C48.2203 32.0563 47.965 31.4144 47.669 30.646L47.1309 29.2488L46.3533 29.2243C45.9256 29.2108 45.5757 29.2176 45.5757 29.2394ZM32.7309 31.6365V33.9815H33.4539H34.177V31.6365V29.2915H33.4539H32.7309V31.6365ZM22.161 30.3586C22.351 30.5778 22.4959 30.9673 22.4169 31.0466C22.394 31.0694 21.9702 31.0773 21.4749 31.0639L20.5744 31.0396L20.7337 30.6836C21.0186 30.046 21.7464 29.8804 22.161 30.3586ZM14.9776 37.1926C14.9994 37.2513 15.395 38.6335 15.8567 40.2644L16.6961 43.2295L17.3703 43.2063L18.0445 43.1831L18.5632 41.3335C19.0386 39.6388 19.2055 39.1573 19.2055 39.4814C19.2055 39.5841 19.4985 40.66 20.1032 42.7781L20.2311 43.2258H20.8934H21.5557L22.3881 40.2687C22.8459 38.6424 23.2399 37.2609 23.2637 37.1988C23.2965 37.1131 23.1855 37.086 22.8001 37.086H22.2935L21.7651 39.0687C21.4744 40.1591 21.2134 41.128 21.1851 41.2218C21.1532 41.3272 20.9498 40.6594 20.6525 39.4737C20.3879 38.4184 20.1443 37.4479 20.1113 37.317C20.0513 37.0795 20.0495 37.079 19.402 37.1038L18.7527 37.1287L18.1947 39.2374C17.8878 40.3973 17.6136 41.2991 17.5854 41.2414C17.5572 41.1837 17.3072 40.2252 17.03 39.1114L16.526 37.0862L15.7321 37.0861C15.1325 37.086 14.9478 37.1121 14.9776 37.1926ZM23.7991 40.1526V43.2258H24.5658H25.3324L25.3101 40.1772L25.2877 37.1287L24.5434 37.104L23.7991 37.0794V40.1526ZM26.3046 37.1931C26.2821 37.2521 26.2738 38.624 26.2861 40.2417L26.3085 43.1831L26.9237 43.2081L27.5389 43.2332L27.5617 41.2161L27.5845 39.1991L28.8187 41.1911L30.0529 43.1831L30.7964 43.2078L31.54 43.2324V40.1555V37.0785L30.9383 37.1036L30.3367 37.1287L30.3457 39.1539C30.3506 40.2679 30.338 41.1792 30.3177 41.1792C30.2973 41.1792 29.7149 40.2582 29.0235 39.1326L27.7663 37.086H27.056C26.5644 37.086 26.3331 37.119 26.3046 37.1931ZM32.5608 40.1559V43.2258H33.1562H33.7517V41.1644V39.1029L35.012 41.143L36.2722 43.1831L37.011 43.2078L37.7497 43.2324V40.1592V37.086H37.1558H36.5619L36.5391 39.1447L36.5163 41.2033L35.2547 39.1447L33.993 37.086H33.2769H32.5608V40.1559ZM38.7705 40.1559V43.2258H40.9397H43.1088V42.7141V42.2025H41.6627H40.2166V41.3924V40.5823H41.4926H42.7686V40.1156V39.6488L41.5139 39.6252L40.2592 39.6016V38.8768V38.152L41.6415 38.1285L43.0238 38.1051V37.5955V37.086H40.8971H38.7705V40.1559ZM43.8744 40.1592V43.2324L44.6064 43.2078L45.3383 43.1831L45.3256 41.9253C45.3085 40.2565 45.3401 40.257 46.5154 41.944L47.4046 43.2205L48.2836 43.2231C48.7885 43.2247 49.1506 43.1921 49.1343 43.1467C49.1187 43.1032 48.6569 42.4877 48.1082 41.7789C47.3026 40.7384 47.1388 40.4813 47.2575 40.4438C48.2366 40.1342 48.6381 39.6281 48.6381 38.7033C48.6381 38.2074 48.5559 38.0108 48.1836 37.6167C47.7652 37.1736 47.318 37.086 45.4752 37.086H43.8744V40.1592ZM46.8827 38.2861C47.069 38.4329 47.1069 38.5316 47.1069 38.8706C47.1069 39.5637 46.577 39.9345 45.7459 39.8233L45.3631 39.7722L45.3381 39.0545C45.3244 38.6598 45.3328 38.2856 45.3567 38.2231C45.3876 38.1424 45.5835 38.1093 46.0295 38.1093C46.5371 38.1093 46.7019 38.1434 46.8827 38.2861Z" fill="white"/>
</svg>
