<svg width="75" height="65" viewBox="0 0 75 65" fill="none" xmlns="http://www.w3.org/2000/svg">
<path d="M20.1441 26.906C21.1797 26.906 22.1639 26.5047 22.9152 25.776C23.346 25.3581 23.3572 24.6693 22.9401 24.2376C22.5231 23.8059 21.8355 23.7944 21.4047 24.2126C21.0607 24.5464 20.6129 24.7301 20.1439 24.7301H19.8033C19.3345 24.7301 18.8867 24.5463 18.5425 24.2126C18.1115 23.7946 17.4241 23.8059 17.0071 24.2376C16.59 24.6695 16.6012 25.3582 17.032 25.776C17.7833 26.5047 18.7675 26.906 19.8031 26.906H20.1441Z" fill="white"/>
<path d="M72.3979 1.37412H37.4071C36.4092 1.37412 35.5974 2.18749 35.5974 3.18741V5.21149C35.5974 6.21141 36.4092 7.02478 37.4071 7.02478H37.7685V29.6344C37.7685 30.6343 38.5803 31.4477 39.5783 31.4477H40.0297L36.2729 36.4452C35.4167 36.0217 34.4541 35.7827 33.4363 35.7827H33.4271C34.8943 27.8393 35.7918 19.0819 35.7918 15.2141C35.7918 10.1054 34.2059 6.2162 31.0782 3.65437C28.3701 1.4362 24.6344 0.311523 19.9746 0.311523C15.0199 0.311523 11.1215 1.57648 8.38793 4.071C7.94461 4.47558 7.91247 5.16362 8.31626 5.60795C8.7202 6.05228 9.40689 6.08433 9.8502 5.67975C12.1713 3.56153 15.5777 2.48748 19.9746 2.48748C26.1997 2.48748 33.6201 4.69549 33.6201 15.2139C33.6201 15.8538 33.5944 16.6337 33.5451 17.523C32.8344 16.7548 31.8197 16.2727 30.6941 16.2727H29.782V15.4807C29.782 13.0761 28.2717 10.9934 26.1317 10.1725C26.3403 9.81175 26.5413 9.44894 26.7309 9.08556C27.0088 8.55317 26.8032 7.89575 26.2718 7.61737C25.7402 7.33885 25.0844 7.54498 24.8064 8.07751C23.2882 10.9866 21.1246 13.8083 18.3638 16.2326C18.3528 16.2423 18.3418 16.2519 18.3308 16.2614C16.1021 18.2128 13.5584 19.8432 10.8204 21.0304C10.423 21.2027 10.1658 21.595 10.1658 22.0289V23.053C10.1658 26.529 12.071 29.5658 14.8885 31.176V35.7824H8.72816C7.24069 27.859 6.32757 19.0478 6.32757 15.2138C6.32757 13.011 6.65636 11.0635 7.30497 9.42515C7.52605 8.86651 7.25343 8.23418 6.69589 8.01267C6.13848 7.79144 5.50739 8.06431 5.28617 8.6228C4.53606 10.5178 4.15573 12.7352 4.15573 15.2139C4.15573 19.0799 5.05278 27.8369 6.51911 35.7824H6.51173C2.96853 35.7824 0.0833626 38.6706 0.0803223 42.2217V59.0446C0.0803223 62.0273 2.50205 64.4538 5.47872 64.4538H6.03656C6.98269 64.4538 7.91609 64.2031 8.73583 63.729L10.047 62.9705H38.7814C39.3811 62.9705 39.8672 62.4835 39.8672 61.8825V42.2264C39.8672 40.4755 39.1656 38.8863 38.0306 37.7236L42.7484 31.4477H53.9692V33.0237C52.6216 33.479 51.6481 34.7566 51.6481 36.2585C51.6481 38.1408 53.1764 39.672 55.0551 39.672C56.9336 39.672 58.4619 38.1407 58.4619 36.2585C58.4619 34.7565 57.4884 33.479 56.1409 33.0237V31.4477H70.2267C71.2246 31.4477 72.0364 30.6343 72.0364 29.6344V7.02478H72.3978C73.3958 7.02478 74.2075 6.21141 74.2075 5.21149V3.18741C74.2077 2.18763 73.3959 1.37412 72.3979 1.37412V1.37412ZM31.2181 35.7828H25.0592V31.1759C27.599 29.7241 29.3963 27.1134 29.726 24.0661H30.694C31.5812 24.0661 32.3995 23.7663 33.0546 23.2631C32.6394 27.0994 32.0103 31.5662 31.2181 35.7828V35.7828ZM18.7733 37.9587C18.2496 39.2785 17.5796 40.0619 16.8607 40.1557C15.9706 40.2724 14.8036 39.4416 13.6851 37.9587H18.7733ZM26.6966 37.9587C25.5778 39.441 24.4101 40.2709 23.5215 40.1557C22.8025 40.0619 22.1326 39.2787 21.6089 37.9587H26.6966ZM30.6941 18.449C31.641 18.449 32.4112 19.2207 32.4112 20.1694C32.4112 21.1182 31.641 21.8899 30.6941 21.8899H29.782V18.4488H30.6941V18.449ZM12.3374 23.0535V22.7347C15.2889 21.37 18.0692 19.5049 20.5199 17.2117C20.5232 17.2087 20.5265 17.2056 20.5299 17.2025C22.2365 15.6043 23.7263 13.8493 24.9371 12.0736C26.476 12.4473 27.6102 13.8436 27.6102 15.4811V23.052C27.6102 27.0067 24.3991 30.224 20.4523 30.224H19.4938C15.5477 30.224 12.3374 27.0072 12.3374 23.0535V23.0535ZM17.0601 32.0751C17.8365 32.2856 18.6519 32.3999 19.4938 32.3999H20.4523C21.2947 32.3999 22.1106 32.2855 22.8875 32.0748V35.7828H17.0601V32.0751ZM37.6957 42.2264V60.7947H33.1965V54.7245C33.1965 54.1235 32.7103 53.6365 32.1107 53.6365C31.511 53.6365 31.0248 54.1235 31.0248 54.7245V60.7947H13.8086L18.4815 58.0914C19.0009 57.791 19.1788 57.1256 18.879 56.6052C18.5791 56.0849 17.915 55.9068 17.3957 56.207L7.65013 61.8447C7.16019 62.1281 6.60236 62.2778 6.0367 62.2778H5.47887C3.69967 62.2778 2.25216 60.8275 2.25216 59.0446V42.2229C2.25419 39.8723 4.16398 37.9598 6.50984 37.9586H11.0645C12.7798 40.7782 14.791 42.3421 16.6965 42.3421C17.923 42.3421 19.1969 41.7043 20.1911 40.0081C21.1549 41.6522 22.3117 42.192 23.2409 42.3133C25.7692 42.6436 27.9788 40.1597 29.3179 37.9586H33.4363C33.962 37.9586 34.4655 38.0552 34.9308 38.2305L31.2363 43.1451C30.8806 42.9286 30.4925 42.7611 30.0793 42.6501C28.9385 42.3437 27.747 42.501 26.7243 43.0927L8.92303 53.3903V50.1865C8.92303 49.5855 8.43686 49.0985 7.83718 49.0985C7.23751 49.0985 6.75134 49.5855 6.75134 50.1865V55.2747C6.75134 55.6635 6.95837 56.0225 7.29426 56.2169C7.63015 56.4113 8.04422 56.4113 8.38011 56.2169L22.0043 48.3356L24.2539 52.2397L21.8588 53.6252C21.3395 53.9256 21.1616 54.591 21.4614 55.1114C21.7612 55.6317 22.4253 55.8099 22.9447 55.5096L31.1456 50.7654C32.1683 50.1738 32.8999 49.2186 33.2056 48.0756C33.5104 46.936 33.3552 45.7458 32.7688 44.7232L36.7022 39.4908C37.3219 40.232 37.6957 41.1863 37.6957 42.2264V42.2264ZM26.1347 51.1519L23.8851 47.2478L27.8103 44.9772C28.3308 44.6761 28.9369 44.5961 29.5174 44.7519C30.0978 44.9077 30.5829 45.2808 30.8834 45.8022C31.1838 46.3236 31.2636 46.9309 31.1081 47.5125C30.9526 48.0941 30.5802 48.58 30.0599 48.8812L26.1347 51.1519ZM55.0552 37.4961C54.374 37.4961 53.8199 36.941 53.8199 36.2586C53.8199 35.5761 54.374 35.0209 55.0552 35.0209C55.7363 35.0209 56.2903 35.5761 56.2903 36.2586C56.2903 36.941 55.7363 37.4961 55.0552 37.4961ZM37.7691 3.55007H72.036V4.84883H37.7691V3.55007ZM69.8649 29.2719H44.3842L46.4882 26.473C46.8489 25.993 46.7533 25.3109 46.2742 24.9494C45.795 24.5878 45.1143 24.6837 44.7535 25.1638L41.6654 29.2719H39.9402V7.02478H69.8649V29.2719Z" fill="white"/>
</svg>
