<svg width="88" height="88" viewBox="0 0 88 88" fill="none" xmlns="http://www.w3.org/2000/svg">
<path d="M78.0054 19.914C80.2497 19.9223 82.4311 19.1722 84.1957 17.7854C85.9602 16.3986 87.2045 14.4563 87.7267 12.2737C88.2489 10.091 88.0184 7.79602 87.0725 5.76082C86.1267 3.72562 84.521 2.06962 82.5158 1.06139C80.5107 0.0531636 78.2237 -0.248157 76.0258 0.2063C73.8279 0.660758 71.848 1.84434 70.4072 3.56508C68.9664 5.28583 68.1492 7.44281 68.0882 9.68621C68.0272 11.9296 68.7258 14.1278 70.0709 15.9244L58.2344 27.7629C57.1073 25.2302 55.3257 23.0435 53.0731 21.4277C50.8204 19.8119 48.1779 18.8253 45.4174 18.5695V11.2122C46.7531 10.8674 47.9171 10.0473 48.6913 8.90571C49.4655 7.76412 49.7967 6.37937 49.6229 5.01104C49.4491 3.64271 48.7821 2.38474 47.7471 1.47292C46.7121 0.561109 45.38 0.0580547 44.0006 0.0580547C42.6212 0.0580547 41.2891 0.561109 40.2541 1.47292C39.219 2.38474 38.5521 3.64271 38.3783 5.01104C38.2045 6.37937 38.5357 7.76412 39.3099 8.90571C40.0841 10.0473 41.2481 10.8674 42.5837 11.2122V18.5695C39.8232 18.8252 37.1807 19.8117 34.928 21.4275C32.6753 23.0434 30.8938 25.2301 29.7667 27.7629L17.9302 15.9244C19.4388 13.9086 20.1277 11.3963 19.8583 8.89308C19.5889 6.38987 18.3811 4.08165 16.4781 2.43307C14.5751 0.784492 12.1182 -0.0820338 9.60194 0.00792499C7.0857 0.0978837 4.69695 1.13765 2.91656 2.91791C1.13617 4.69817 0.0963295 7.08675 0.00636427 9.60281C-0.0836009 12.1189 0.782987 14.5756 2.43168 16.4785C4.08038 18.3813 6.38877 19.589 8.89216 19.8584C11.3956 20.1279 13.9081 19.439 15.924 17.9305L28.7749 30.7806C28.5377 31.865 28.4171 32.9716 28.4151 34.0816V42.2394C28.4151 42.3541 28.4009 42.4675 28.3981 42.5822H16.8789C16.5341 41.2467 15.7139 40.0828 14.5723 39.3086C13.4306 38.5345 12.0457 38.2033 10.6773 38.3771C9.30887 38.5509 8.05081 39.2178 7.13893 40.2527C6.22705 41.2877 5.72396 42.6197 5.72396 43.999C5.72396 45.3783 6.22705 46.7103 7.13893 47.7452C8.05081 48.7802 9.30887 49.4471 10.6773 49.6209C12.0457 49.7947 13.4306 49.4635 14.5723 48.6893C15.7139 47.9152 16.5341 46.7513 16.8789 45.4157H28.0127C27.4443 47.7182 26.2571 49.8214 24.5796 51.4979C24.314 51.7636 24.1648 52.1239 24.1648 52.4996C24.1648 52.8752 24.314 53.2355 24.5796 53.5012L27.623 56.5444C26.9531 57.6534 26.4396 58.8496 26.0971 60.0991L25.9965 59.9985L15.924 70.0674C13.9081 68.559 11.3956 67.8701 8.89216 68.1395C6.38877 68.4089 4.08038 69.6166 2.43168 71.5195C0.782987 73.4223 -0.0836009 75.8791 0.00636427 78.3951C0.0963295 80.9112 1.13617 83.2998 2.91656 85.08C4.69695 86.8603 7.0857 87.9001 9.60194 87.99C12.1182 88.08 14.5751 87.2135 16.4781 85.5649C18.3811 83.9163 19.5889 81.6081 19.8583 79.1049C20.1277 76.6017 19.4388 74.0893 17.9302 72.0736L25.5813 64.4231V68.084C25.5813 68.4597 25.7306 68.8201 25.9963 69.0858C26.262 69.3515 26.6224 69.5007 26.9982 69.5007H42.5837V76.7857C41.2481 77.1306 40.0841 77.9506 39.3099 79.0922C38.5357 80.2338 38.2045 81.6186 38.3783 82.9869C38.5521 84.3552 39.219 85.6132 40.2541 86.525C41.2891 87.4369 42.6212 87.9399 44.0006 87.9399C45.38 87.9399 46.7121 87.4369 47.7471 86.525C48.7821 85.6132 49.4491 84.3552 49.6229 82.9869C49.7967 81.6186 49.4655 80.2338 48.6913 79.0922C47.9171 77.9506 46.7531 77.1306 45.4174 76.7857V69.5007H61.003C61.3787 69.5007 61.7391 69.3515 62.0049 69.0858C62.2706 68.8201 62.4198 68.4597 62.4198 68.084V64.4202L70.0709 72.0707C68.5607 74.0853 67.8697 76.5972 68.1372 79.1007C68.4047 81.6042 69.6107 83.9135 71.5125 85.5636C73.4144 87.2136 75.8707 88.082 78.3871 87.9939C80.9035 87.9058 83.2931 86.8677 85.0748 85.0886C86.8565 83.3096 87.898 80.9216 87.9897 78.4055C88.0814 75.8894 87.2164 73.432 85.5689 71.528C83.9214 69.624 81.6137 68.4148 79.1104 68.1438C76.6071 67.8728 74.0941 68.5601 72.0772 70.0674L62.0047 59.9957L61.9041 60.0963C61.5616 58.8468 61.0481 57.6506 60.3781 56.5416L63.4216 53.4984C63.6872 53.2327 63.8364 52.8724 63.8364 52.4967C63.8364 52.1211 63.6872 51.7608 63.4216 51.4951C61.7445 49.8194 60.5574 47.7172 59.9885 45.4157H71.1222C71.4671 46.7513 72.2872 47.9152 73.4289 48.6893C74.5706 49.4635 75.9554 49.7947 77.3239 49.6209C78.6923 49.4471 79.9503 48.7802 80.8622 47.7452C81.7741 46.7103 82.2772 45.3783 82.2772 43.999C82.2772 42.6197 81.7741 41.2877 80.8622 40.2527C79.9503 39.2178 78.6923 38.5509 77.3239 38.3771C75.9554 38.2033 74.5706 38.5345 73.4289 39.3086C72.2872 40.0828 71.4671 41.2467 71.1222 42.5822H59.6031C59.6031 42.4675 59.5861 42.3541 59.5861 42.2394V34.0816C59.5843 32.9706 59.4636 31.8631 59.2262 30.7777L72.0772 17.9277C73.7852 19.2158 75.866 19.9131 78.0054 19.914ZM2.91146 9.99663C2.91146 8.59559 3.32695 7.226 4.10538 6.06107C4.88382 4.89614 5.99024 3.98819 7.28473 3.45204C8.57923 2.91588 10.0036 2.77559 11.3779 3.04893C12.7521 3.32226 14.0144 3.99692 15.0052 4.98762C15.9959 5.97831 16.6706 7.24052 16.944 8.61465C17.2173 9.98878 17.0771 11.4131 16.5409 12.7075C16.0047 14.0019 15.0966 15.1082 13.9316 15.8866C12.7666 16.665 11.3969 17.0805 9.99579 17.0805C8.1176 17.0782 6.31698 16.3312 4.9889 15.0032C3.66081 13.6752 2.91371 11.8747 2.91146 9.99663ZM11.4127 46.8325C10.8522 46.8325 10.3043 46.6663 9.83832 46.355C9.37231 46.0436 9.00911 45.6011 8.79463 45.0833C8.58015 44.5656 8.52403 43.9958 8.63337 43.4462C8.74271 42.8965 9.0126 42.3916 9.40891 41.9954C9.80521 41.5991 10.3101 41.3292 10.8598 41.2199C11.4095 41.1106 11.9793 41.1667 12.4971 41.3811C13.0149 41.5956 13.4574 41.9588 13.7688 42.4248C14.0802 42.8907 14.2464 43.4386 14.2464 43.999C14.2464 44.7505 13.9478 45.4712 13.4164 46.0026C12.885 46.534 12.1642 46.8325 11.4127 46.8325ZM46.8343 82.2516C46.8343 82.812 46.6681 83.3599 46.3567 83.8258C46.0454 84.2918 45.6028 84.655 45.085 84.8695C44.5672 85.0839 43.9974 85.14 43.4477 85.0307C42.8981 84.9214 42.3931 84.6515 41.9968 84.2552C41.6005 83.859 41.3306 83.3541 41.2213 82.8044C41.112 82.2548 41.1681 81.685 41.3826 81.1673C41.597 80.6495 41.9602 80.207 42.4262 79.8956C42.8922 79.5843 43.4401 79.4181 44.0006 79.4181C44.7521 79.4181 45.4729 79.7166 46.0043 80.248C46.5358 80.7794 46.8343 81.5001 46.8343 82.2516ZM76.5885 41.1654C77.149 41.1654 77.6968 41.3316 78.1628 41.643C78.6288 41.9543 78.9921 42.3969 79.2065 42.9146C79.421 43.4324 79.4771 44.0021 79.3678 44.5518C79.2584 45.1014 78.9886 45.6063 78.5923 46.0026C78.196 46.3989 77.691 46.6687 77.1413 46.7781C76.5917 46.8874 76.0219 46.8313 75.5041 46.6168C74.9863 46.4024 74.5437 46.0392 74.2323 45.5732C73.921 45.1072 73.7548 44.5594 73.7548 43.999C73.7548 43.2475 74.0533 42.5268 74.5847 41.9954C75.1162 41.464 75.837 41.1654 76.5885 41.1654ZM41.1668 5.74634C41.1668 5.18592 41.333 4.63809 41.6444 4.17212C41.9558 3.70614 42.3984 3.34296 42.9162 3.1285C43.434 2.91404 44.0037 2.85792 44.5534 2.96726C45.1031 3.07659 45.608 3.34646 46.0043 3.74273C46.4006 4.13901 46.6705 4.6439 46.7799 5.19355C46.8892 5.7432 46.8331 6.31292 46.6186 6.83068C46.4041 7.34844 46.0409 7.79098 45.5749 8.10233C45.1089 8.41368 44.561 8.57987 44.0006 8.57987C43.249 8.57987 42.5283 8.28134 41.9968 7.74995C41.4654 7.21856 41.1668 6.49784 41.1668 5.74634ZM9.99579 85.0851C8.59464 85.0851 7.22496 84.6697 6.05995 83.8913C4.89493 83.1129 3.98692 82.0066 3.45072 80.7122C2.91453 79.4178 2.77423 77.9935 3.04758 76.6193C3.32093 75.2452 3.99565 73.983 4.98641 72.9923C5.97717 72.0016 7.23948 71.327 8.61371 71.0536C9.98793 70.7803 11.4124 70.9206 12.7068 71.4567C14.0013 71.9929 15.1078 72.9008 15.8862 74.0658C16.6646 75.2307 17.0801 76.6003 17.0801 78.0013C17.0779 79.8794 16.3308 81.6799 15.0027 83.0079C13.6746 84.3358 11.874 85.0829 9.99579 85.0851ZM59.5861 66.6672H28.4151V63.8337C28.4187 61.0359 29.4557 58.3381 31.327 56.2583C33.1984 54.1784 35.7722 52.863 38.5541 52.5647C38.8738 53.765 39.5811 54.826 40.5661 55.5829C41.551 56.3398 42.7584 56.7502 44.0006 56.7502C45.2428 56.7502 46.4502 56.3398 47.4351 55.5829C48.42 54.826 49.1273 53.765 49.447 52.5647C52.229 52.863 54.8028 54.1784 56.6741 56.2583C58.5455 58.3381 59.5825 61.0359 59.5861 63.8337V66.6672ZM44.0006 46.8325C42.1224 46.8303 40.3218 46.0832 38.9937 44.7552C37.6656 43.4272 36.9185 41.6267 36.9162 39.7487V34.0816H37.9888C41.7259 34.0922 45.346 32.7792 48.2073 30.3754L51.0849 33.2514V39.7487C51.0827 41.6267 50.3356 43.4272 49.0075 44.7552C47.6794 46.0832 45.8788 46.8303 44.0006 46.8325ZM44.0006 49.666C44.9608 49.6632 45.9155 49.52 46.8343 49.241V51.0828C46.8343 51.8343 46.5358 52.555 46.0043 53.0864C45.4729 53.6178 44.7521 53.9163 44.0006 53.9163C43.249 53.9163 42.5283 53.6178 41.9968 53.0864C41.4654 52.555 41.1668 51.8343 41.1668 51.0828V49.241C42.0857 49.52 43.0403 49.6632 44.0006 49.666ZM85.0897 78.0013C85.0897 79.4024 84.6742 80.772 83.8958 81.9369C83.1173 83.1018 82.0109 84.0098 80.7164 84.5459C79.4219 85.0821 77.9975 85.2224 76.6233 84.949C75.2491 84.6757 73.9867 84.001 72.996 83.0103C72.0052 82.0197 71.3305 80.7574 71.0572 79.3833C70.7838 78.0092 70.9241 76.5849 71.4603 75.2905C71.9965 73.9961 72.9045 72.8897 74.0695 72.1113C75.2345 71.333 76.6042 70.9175 78.0054 70.9175C79.8836 70.9198 81.6842 71.6668 83.0123 72.9948C84.3403 74.3228 85.0874 76.1233 85.0897 78.0013ZM58.6609 54.2549C56.3192 51.6969 53.1184 50.0893 49.668 49.7383V47.8752C50.9791 46.9636 52.0504 45.7484 52.7905 44.3334C53.5306 42.9184 53.9176 41.3455 53.9186 39.7487V32.6649C53.9186 32.2891 53.7692 31.9288 53.5035 31.6632L49.2529 27.4129C48.9872 27.1473 48.6269 26.9981 48.2512 26.9981C47.8755 26.9981 47.5152 27.1473 47.2495 27.4129C46.0362 28.6327 44.5929 29.5998 43.0033 30.2581C41.4137 30.9164 39.7094 31.2529 37.9888 31.2481H35.4994C35.1236 31.2481 34.7632 31.3974 34.4975 31.6631C34.2318 31.9288 34.0825 32.2891 34.0825 32.6649V39.7487C34.0835 41.3455 34.4706 42.9184 35.2107 44.3334C35.9508 45.7484 37.022 46.9636 38.3331 47.8752V49.7383C34.8828 50.0893 31.682 51.6969 29.3403 54.2549L27.5408 52.4557C29.9462 49.5959 31.26 45.9761 31.2488 42.2394V34.0816C31.2488 30.6999 32.5923 27.4566 34.9837 25.0654C37.3751 22.6741 40.6186 21.3307 44.0006 21.3307C47.3826 21.3307 50.626 22.6741 53.0175 25.0654C55.4089 27.4566 56.7524 30.6999 56.7524 34.0816V42.2394C56.7411 45.9761 58.0549 49.5959 60.4603 52.4557L58.6609 54.2549ZM78.0054 2.91281C79.4065 2.91281 80.7762 3.32827 81.9412 4.10665C83.1062 4.88503 84.0142 5.99137 84.5504 7.28577C85.0866 8.58017 85.2269 10.0045 84.9536 11.3786C84.6802 12.7527 84.0055 14.015 83.0147 15.0057C82.024 15.9963 80.7617 16.671 79.3875 16.9443C78.0132 17.2177 76.5888 17.0774 75.2943 16.5412C73.9998 16.0051 72.8934 15.0971 72.115 13.9322C71.3365 12.7673 70.921 11.3977 70.921 9.99663C70.9233 8.11858 71.6704 6.31809 72.9985 4.9901C74.3266 3.66211 76.1272 2.91506 78.0054 2.91281Z" fill="url(#paint0_linear_494_3804)"/>
<defs>
<linearGradient id="paint0_linear_494_3804" x1="44" y1="0" x2="44" y2="88" gradientUnits="userSpaceOnUse">
<stop stop-color="#88CEF0"/>
<stop offset="1" stop-color="#59A0D1"/>
</linearGradient>
</defs>
</svg>
