<svg width="92" height="63" viewBox="0 0 92 63" fill="none" xmlns="http://www.w3.org/2000/svg">
<path d="M30.7262 15.2673H39.8807L39.7996 61.6534H30.645L30.7262 15.2673Z" fill="#4D4D4D"/>
<path d="M44.3282 38.5983C44.3282 25.6186 53.856 14.1154 68.1722 14.1154C82.4884 14.1154 92 25.6024 92 38.5983C92 51.5941 82.5695 62.9351 68.1722 62.9351C53.7749 62.9351 44.3282 51.3994 44.3282 38.5983ZM82.8454 38.5983C82.8454 29.3502 76.6775 22.5197 68.2371 22.5197C59.7968 22.5197 53.6288 29.3502 53.6288 38.5983C53.6288 47.8463 59.7156 54.5794 68.2371 54.5794C76.7586 54.5794 82.7805 47.7651 82.7805 38.5983H82.8454Z" fill="#4D4D4D"/>
<path d="M26.1327 23.3958V15.2835H15.4361L15.5173 0.973474H6.49259V15.2511H0V23.3634H6.49259V49.5012C6.49259 53.7195 7.45025 56.8833 9.3331 58.9925C11.2159 61.1017 14.4136 62.2374 18.8934 62.2374C20.0459 62.2374 21.2795 62.1077 22.6267 62.0103C23.9739 61.913 24.7043 61.6534 24.7043 61.6534V53.9305H21.1009C20.2693 54.033 19.4251 53.9397 18.636 53.658C17.8469 53.3763 17.1346 52.914 16.5561 52.308C15.667 50.7415 15.271 48.9435 15.4199 47.1486V23.3958H26.1327Z" fill="#4D4D4D"/>
<path d="M35.2548 11.1625C38.3385 11.1625 40.8384 8.66369 40.8384 5.58125C40.8384 2.49881 38.3385 0 35.2548 0C32.171 0 29.6711 2.49881 29.6711 5.58125C29.6711 8.66369 32.171 11.1625 35.2548 11.1625Z" fill="#4D4D4D"/>
</svg>
