<svg width="17" height="17" viewBox="0 0 17 17" fill="none" xmlns="http://www.w3.org/2000/svg">
<path fill-rule="evenodd" clip-rule="evenodd" d="M7.72511 0.026745C6.62556 0.152686 5.65708 0.432159 4.74421 0.886882C0.940145 2.78205 -0.868057 7.05496 0.404207 11.1431C1.27792 13.9507 3.68239 16.1289 6.70182 16.8484C7.45852 17.0287 9.31059 17.0536 10.0831 16.8938C12.6903 16.3547 14.6452 14.9244 15.9722 12.5849C17.122 10.558 17.3226 7.87273 16.4956 5.57954C15.6682 3.2851 13.6524 1.28179 11.3753 0.490902C10.3629 0.139246 8.64759 -0.078903 7.72511 0.026745ZM10.3922 1.84341C12.6791 2.49136 14.4602 4.26913 15.1614 6.60389C15.3681 7.29207 15.4018 7.56175 15.4002 8.51748C15.3985 9.46244 15.3623 9.75072 15.1596 10.4311C13.8505 14.8237 8.86933 16.7875 4.92538 14.4659C4.17891 14.0265 2.99999 12.8606 2.57706 12.1438C1.47208 10.2705 1.27926 7.88938 2.07235 5.91153C2.9256 3.7837 4.85589 2.18795 7.15803 1.70732C7.99562 1.53234 9.52112 1.5966 10.3922 1.84341ZM6.15146 4.37077C5.5939 4.62266 5.58954 4.65594 5.58954 8.62678C5.58954 11.7738 5.60707 12.2412 5.732 12.4195C5.93978 12.7163 6.26572 12.8152 6.63428 12.6936C7.0387 12.5601 7.19122 12.188 7.19122 11.3346V10.6749L8.59268 10.6334C10.31 10.5826 10.7758 10.4381 11.4938 9.73337C12.2778 8.96375 12.5914 8.01861 12.4231 6.93276C12.2562 5.85679 11.4997 4.891 10.5253 4.50998C10.0441 4.32182 9.82686 4.29948 8.21451 4.27251C6.80753 4.24902 6.37552 4.26958 6.15146 4.37077ZM10.1873 6.1287C11.1086 6.73918 11.1086 8.15968 10.1873 8.77016C9.84715 8.99561 9.76671 9.00834 8.51064 9.03566L7.19122 9.06432V7.44943V5.83454L8.51064 5.8632C9.76671 5.89052 9.84715 5.90325 10.1873 6.1287Z" fill="#623A95"/>
</svg>
