<svg width="13" height="12" viewBox="0 0 13 12" fill="none" xmlns="http://www.w3.org/2000/svg">
<path d="M0.446918 0.580538L2.88442 0.0180382C3.14223 -0.0522743 3.42348 0.0883507 3.54067 0.346163L4.66567 2.97116C4.75942 3.20554 4.6891 3.46335 4.5016 3.62741L3.07192 4.79929C3.91567 6.58054 5.39223 8.08054 7.22035 8.94773L8.39223 7.51804C8.55629 7.33054 8.8141 7.26023 9.04848 7.35398L11.6735 8.47898C11.9313 8.59616 12.0485 8.87741 12.0016 9.13523L11.4391 11.5727C11.3688 11.8305 11.1579 11.9946 10.8766 11.9946C4.8766 11.9946 0.00160503 7.14304 0.00160503 1.1196C0.00160503 0.861788 0.189105 0.650851 0.446918 0.580538Z" fill="#623A95"/>
</svg>
