<svg width="133" height="117" viewBox="0 0 133 117" fill="none" xmlns="http://www.w3.org/2000/svg">
<path d="M58.5742 1.57322e-05C93.6206 1.6151e-05 133 58.5 133 58.5C133 58.5 94.1748 117 58.5742 117C26.2246 117 3.12329e-07 90.8087 6.97605e-07 58.5C1.08288e-06 26.1914 26.2246 1.53464e-05 58.5742 1.57322e-05Z" fill="url(#paint0_linear_628_329)"/>
<path d="M92.9739 4.57202e-06C101.933 4.67909e-06 112 15 112 15C112 15 102.075 30 92.9739 30C84.704 30 78 23.2843 78 15C78 6.71573 84.704 4.47341e-06 92.9739 4.57202e-06Z" fill="url(#paint1_linear_628_329)"/>
<defs>
<linearGradient id="paint0_linear_628_329" x1="6.97605e-07" y1="58.5" x2="133" y2="58.5" gradientUnits="userSpaceOnUse">
<stop stop-color="#623A95"/>
<stop offset="1" stop-color="#623A95" stop-opacity="0.2"/>
</linearGradient>
<linearGradient id="paint1_linear_628_329" x1="78" y1="15" x2="112" y2="15" gradientUnits="userSpaceOnUse">
<stop stop-color="#623A95"/>
<stop offset="1" stop-color="#623A95" stop-opacity="0.2"/>
</linearGradient>
</defs>
</svg>
