<svg width="112" height="112" viewBox="0 0 112 112" fill="none" xmlns="http://www.w3.org/2000/svg">
<path d="M99.75 3.5H12.25C9.93021 3.50278 7.70623 4.42554 6.06588 6.06588C4.42554 7.70623 3.50278 9.93021 3.5 12.25V78.75C3.50278 81.0698 4.42554 83.2938 6.06588 84.9341C7.70623 86.5745 9.93021 87.4972 12.25 87.5H41.538C39.9867 91.5269 37.4983 95.1263 34.279 98H31.5C30.1076 98 28.7723 98.5531 27.7877 99.5377C26.8031 100.522 26.25 101.858 26.25 103.25V106.75C26.25 107.214 26.4344 107.659 26.7626 107.987C27.0908 108.316 27.5359 108.5 28 108.5H84C84.4641 108.5 84.9092 108.316 85.2374 107.987C85.5656 107.659 85.75 107.214 85.75 106.75V103.25C85.75 101.858 85.1969 100.522 84.2123 99.5377C83.2277 98.5531 81.8924 98 80.5 98H77.721C74.5017 95.1263 72.0133 91.5269 70.462 87.5H99.75C102.07 87.4972 104.294 86.5745 105.934 84.9341C107.574 83.2938 108.497 81.0698 108.5 78.75V12.25C108.497 9.93021 107.574 7.70623 105.934 6.06588C104.294 4.42554 102.07 3.50278 99.75 3.5ZM80.5 101.5C80.9641 101.5 81.4092 101.684 81.7374 102.013C82.0656 102.341 82.25 102.786 82.25 103.25V105H29.75V103.25C29.75 102.786 29.9344 102.341 30.2626 102.013C30.5907 101.684 31.0359 101.5 31.5 101.5H80.5ZM72.87 98H39.13C41.9546 95.0371 44.02 91.4345 45.15 87.5H66.8675C67.9924 91.4328 70.0518 95.0352 72.87 98ZM105 78.75C105 80.1424 104.447 81.4777 103.462 82.4623C102.478 83.4469 101.142 84 99.75 84H12.25C10.8576 84 9.52226 83.4469 8.53769 82.4623C7.55312 81.4777 7 80.1424 7 78.75V73.5H105V78.75ZM105 70H7V12.25C7 10.8576 7.55312 9.52226 8.53769 8.53769C9.52226 7.55312 10.8576 7 12.25 7H99.75C101.142 7 102.478 7.55312 103.462 8.53769C104.447 9.52226 105 10.8576 105 12.25V70Z" fill="url(#paint0_linear_326_9130)"/>
<path d="M56 80.5C56.9665 80.5 57.75 79.7165 57.75 78.75C57.75 77.7835 56.9665 77 56 77C55.0335 77 54.25 77.7835 54.25 78.75C54.25 79.7165 55.0335 80.5 56 80.5Z" fill="url(#paint1_linear_326_9130)"/>
<path d="M14 33.25C14.9665 33.25 15.75 32.4665 15.75 31.5C15.75 30.5335 14.9665 29.75 14 29.75C13.0335 29.75 12.25 30.5335 12.25 31.5C12.25 32.4665 13.0335 33.25 14 33.25Z" fill="url(#paint2_linear_326_9130)"/>
<path d="M14 26.25C14.4641 26.25 14.9092 26.0656 15.2374 25.7374C15.5656 25.4092 15.75 24.9641 15.75 24.5V14C15.75 13.5359 15.5656 13.0908 15.2374 12.7626C14.9092 12.4344 14.4641 12.25 14 12.25C13.5359 12.25 13.0908 12.4344 12.7626 12.7626C12.4344 13.0908 12.25 13.5359 12.25 14V24.5C12.25 24.9641 12.4344 25.4092 12.7626 25.7374C13.0908 26.0656 13.5359 26.25 14 26.25Z" fill="url(#paint3_linear_326_9130)"/>
<path d="M94.1133 19.5545C90.0095 17.1307 83.8005 16.7038 78.1183 22.2478C72.4395 16.702 66.2183 17.1272 62.1198 19.5545C61.0786 20.1792 60.1287 20.9448 59.297 21.8295L50.2373 12.7628C49.9091 12.4345 49.4641 12.2501 49 12.25H24.5C24.0359 12.25 23.5908 12.4344 23.2626 12.7626C22.9344 13.0908 22.75 13.5359 22.75 14C22.75 14.4641 22.9344 14.9092 23.2626 15.2374C23.5908 15.5656 24.0359 15.75 24.5 15.75H48.2755L57.2005 24.675C56.1974 26.4578 55.6021 28.4408 55.4575 30.4812C55.3128 32.5217 55.6224 34.5688 56.364 36.4753C57.0974 38.2714 58.0271 39.981 59.136 41.573C59.859 42.6523 60.512 43.777 61.0908 44.94L48.2755 57.75H14C13.5359 57.75 13.0908 57.9344 12.7626 58.2626C12.4344 58.5908 12.25 59.0359 12.25 59.5C12.25 59.9641 12.4344 60.4092 12.7626 60.7374C13.0908 61.0656 13.5359 61.25 14 61.25H49C49.4641 61.2499 49.9091 61.0655 50.2373 60.7373L62.1075 48.867C62.1268 49.189 62.1443 49.5093 62.1565 49.8435C62.1563 51.059 62.2931 52.2706 62.5643 53.4555C63.6615 57.6765 66.2025 60.0513 69.5748 59.9725C74.8563 59.8483 76.181 54.5982 77.0578 51.1297C77.3203 50.092 77.3465 47.8135 78.1077 47.8047C78.869 47.796 78.9145 50.0938 79.1753 51.1297C80.0503 54.5982 81.3768 59.8483 86.66 59.9725C90.034 60.0513 92.5733 57.6747 93.66 53.4555C93.9309 52.2694 94.0683 51.0567 94.0695 49.84C94.0723 48.95 94.1555 48.062 94.318 47.187C94.9024 45.1655 95.8416 43.264 97.0918 41.5712C98.2001 39.9798 99.1291 38.2708 99.862 36.4753C101.047 33.4292 101.121 30.0627 100.069 26.9679C99.0177 23.8731 96.9088 21.2481 94.1133 19.5545ZM96.5913 35.252C95.943 36.8095 95.128 38.2922 94.1605 39.6742C92.6751 41.7089 91.5732 43.9974 90.909 46.4275C90.6979 47.511 90.5884 48.6119 90.5818 49.7158C90.5826 50.6779 90.4823 51.6375 90.2825 52.5788C89.8188 54.3812 88.8108 56.525 86.7458 56.4725C84.2958 56.4095 83.5083 53.9787 82.572 50.2722C81.83 47.32 81.0355 44.058 78.1183 44.058C75.201 44.058 74.4065 47.32 73.6645 50.2722C72.7283 53.9787 71.932 56.4077 69.489 56.4725C67.424 56.525 66.416 54.383 65.9523 52.577C65.7512 51.6384 65.6515 50.6809 65.6548 49.721C65.6471 48.6153 65.5364 47.5127 65.324 46.4275C64.6612 43.9967 63.5598 41.7075 62.0743 39.6725C61.1056 38.29 60.2894 36.8067 59.64 35.2485C58.7473 32.9723 58.685 30.4544 59.4639 28.1368C60.2428 25.8192 61.8133 23.85 63.8995 22.575C68.0558 20.125 72.8735 21.385 76.79 25.9525C78.3272 27.4474 79.9643 28.836 81.69 30.1087C82.0666 30.3803 82.5357 30.491 82.994 30.4167C83.221 30.3799 83.4384 30.2988 83.634 30.1779C83.8296 30.0571 83.9994 29.8989 84.1339 29.7124C84.2683 29.5259 84.3647 29.3147 84.4175 29.091C84.4704 28.8672 84.4786 28.6353 84.4418 28.4083C84.405 28.1814 84.3239 27.9639 84.203 27.7684C84.0822 27.5728 83.924 27.4029 83.7375 27.2685C82.635 26.474 81.5063 25.5185 80.6278 24.7362C84.3028 21.2013 88.5903 20.3612 92.3388 22.575C94.4264 23.8496 95.9979 25.8193 96.7772 28.1377C97.5566 30.4562 97.4938 32.9752 96.6 35.252H96.5913Z" fill="url(#paint4_linear_326_9130)"/>
<path d="M38.5 22.75C38.9641 22.75 39.4093 22.5656 39.7374 22.2374C40.0656 21.9092 40.25 21.4641 40.25 21C40.25 20.5359 40.0656 20.0908 39.7374 19.7626C39.4093 19.4344 38.9641 19.25 38.5 19.25H24.5C24.0359 19.25 23.5908 19.4344 23.2626 19.7626C22.9344 20.0908 22.75 20.5359 22.75 21C22.75 21.4641 22.9344 21.9092 23.2626 22.2374C23.5908 22.5656 24.0359 22.75 24.5 22.75H38.5Z" fill="url(#paint5_linear_326_9130)"/>
<path d="M14 54.25H36.75C37.2141 54.25 37.6593 54.0656 37.9874 53.7374C38.3156 53.4092 38.5 52.9641 38.5 52.5C38.5 52.0359 38.3156 51.5908 37.9874 51.2626C37.6593 50.9344 37.2141 50.75 36.75 50.75H14C13.5359 50.75 13.0908 50.9344 12.7626 51.2626C12.4344 51.5908 12.25 52.0359 12.25 52.5C12.25 52.9641 12.4344 53.4092 12.7626 53.7374C13.0908 54.0656 13.5359 54.25 14 54.25Z" fill="url(#paint6_linear_326_9130)"/>
<defs>
<linearGradient id="paint0_linear_326_9130" x1="56" y1="3.5" x2="56" y2="108.5" gradientUnits="userSpaceOnUse">
<stop stop-color="#623A95" stop-opacity="0.6"/>
<stop offset="1" stop-color="#623A95"/>
</linearGradient>
<linearGradient id="paint1_linear_326_9130" x1="56" y1="77" x2="56" y2="80.5" gradientUnits="userSpaceOnUse">
<stop stop-color="#623A95" stop-opacity="0.6"/>
<stop offset="1" stop-color="#623A95"/>
</linearGradient>
<linearGradient id="paint2_linear_326_9130" x1="14" y1="29.75" x2="14" y2="33.25" gradientUnits="userSpaceOnUse">
<stop stop-color="#623A95" stop-opacity="0.6"/>
<stop offset="1" stop-color="#623A95"/>
</linearGradient>
<linearGradient id="paint3_linear_326_9130" x1="14" y1="12.25" x2="14" y2="26.25" gradientUnits="userSpaceOnUse">
<stop stop-color="#623A95" stop-opacity="0.6"/>
<stop offset="1" stop-color="#623A95"/>
</linearGradient>
<linearGradient id="paint4_linear_326_9130" x1="56.5288" y1="12.25" x2="56.5288" y2="61.25" gradientUnits="userSpaceOnUse">
<stop stop-color="#623A95" stop-opacity="0.6"/>
<stop offset="1" stop-color="#623A95"/>
</linearGradient>
<linearGradient id="paint5_linear_326_9130" x1="31.5" y1="19.25" x2="31.5" y2="22.75" gradientUnits="userSpaceOnUse">
<stop stop-color="#623A95" stop-opacity="0.6"/>
<stop offset="1" stop-color="#623A95"/>
</linearGradient>
<linearGradient id="paint6_linear_326_9130" x1="25.375" y1="50.75" x2="25.375" y2="54.25" gradientUnits="userSpaceOnUse">
<stop stop-color="#623A95" stop-opacity="0.6"/>
<stop offset="1" stop-color="#623A95"/>
</linearGradient>
</defs>
</svg>
