<svg width="20" height="19" viewBox="0 0 20 19" fill="none" xmlns="http://www.w3.org/2000/svg">
<path d="M9.04894 0.927037C9.34829 0.00572646 10.6517 0.0057252 10.9511 0.927036L12.4697 5.6008C12.6035 6.01282 12.9875 6.29178 13.4207 6.29178H18.335C19.3037 6.29178 19.7065 7.5314 18.9228 8.1008L14.947 10.9893C14.5965 11.244 14.4499 11.6954 14.5838 12.1074L16.1024 16.7811C16.4017 17.7024 15.3472 18.4686 14.5635 17.8992L10.5878 15.0106C10.2373 14.756 9.7627 14.756 9.41221 15.0106L5.43647 17.8992C4.65276 18.4686 3.59828 17.7024 3.89763 16.7811L5.41623 12.1074C5.5501 11.6954 5.40344 11.244 5.05296 10.9893L1.07722 8.1008C0.293504 7.5314 0.696279 6.29178 1.665 6.29178H6.57929C7.01251 6.29178 7.39647 6.01282 7.53034 5.6008L9.04894 0.927037Z" fill="url(#paint0_linear_44_107)"/>
<defs>
<linearGradient id="paint0_linear_44_107" x1="6.02444" y1="-0.430133" x2="20.7459" y2="6.37383" gradientUnits="userSpaceOnUse">
<stop stop-color="#8A54CF" stop-opacity="0.88"/>
<stop offset="1" stop-color="#3FA2E9"/>
</linearGradient>
</defs>
</svg>
